<?xml version="1.0" encoding="UTF-8" standalone="no"?>
<!DOCTYPE svg PUBLIC "-//W3C//DTD SVG 1.1//EN"
"http://www.w3.org/Graphics/SVG/1.1/DTD/svg11.dtd">
<svg viewBox="0 0 909 1286" version="1.1" xmlns="http://www.w3.org/2000/svg" xmlns:xlink="http://www.w3.org/1999/xlink">
<defs>
<clipPath id="c0_8"><path d="M386.9 1044.4v-38.9h39v38.9Z"/></clipPath>
<clipPath id="c1_8"><path d="M-.2 1286.5V-.2h910V1286.5Z"/></clipPath>
<clipPath id="c2_8"><path d="M135.9 951.2c-7.2 0 -13 -5.8 -13 -13V813.7c0 -7.2 5.8 -13 13 -13h172c7.1 0 13 5.8 13 13V938.2c0 7.2 -5.9 13 -13 13Z"/></clipPath>
<clipPath id="c3_8"><path d="M135.7 1119.3c-7.1 0 -13 -5.8 -13 -13V981.8c0 -7.2 5.9 -13 13 -13h172c7.2 0 13 5.8 13 13v124.5c0 7.2 -5.8 13 -13 13Z"/></clipPath>
<clipPath id="c4_8"><path d="M224.5 534c-1.2 0 -2.7 -.3 -4.4 -1.1c-1.1 -.5 -3.2 -2.5 -3.8 -8.2c-.1 -.7 -.5 -1.7 0 -2.4c.5 -.9 1.4 -.7 1.9 -1.5c.6 -.9 -.2 -1.5 .4 -2.9c.3 -.8 .8 -1.2 1.4 -1.8c0 0 2.1 -1.4 2.2 -1.5c.2 -.1 .6 -.2 1.1 -.2c1.8 0 5.7 1.3 13.7 5.6c.5 1 .7 1.8 .8 2.4c.2 1.7 -.4 2.3 -.5 2.4c-.1 .1 -.3 .2 -.3 .2c-5.1 2.2 -6.8 9 -12.5 9Z"/></clipPath>
<clipPath id="c5_8"><path d="M258.8 530.7c-4.5 0 -12.2 -4.5 -17.5 -6.7c-.1 0 -.2 -.1 -.4 -.2c-1 -1 -.4 -3.3 .2 -5.1c8.5 -4.7 12.5 -6.1 14.4 -6.1c.4 0 .8 .1 1 .2c.1 .1 2.4 1.5 2.4 1.5c.6 .6 1.1 1 1.5 1.8c.6 1.4 -.2 2.1 .4 3c.6 .9 1.5 .7 2.1 1.5c.5 .9 .2 1.9 0 2.6c-1.5 5.4 -.7 5.8 -1.5 6.7c-.6 .6 -1.5 .8 -2.6 .8Z"/></clipPath>
<style type="text/css"><![CDATA[
.g0_8{
fill: #F8CCCC;
}
.g1_8{
fill: #FFF;
}
.g2_8{
fill: none;
stroke: #1A9479;
stroke-width: 24.444;
stroke-miterlimit: 10;
}
.g3_8{
fill: none;
stroke: #FFF;
stroke-width: 1.527;
stroke-miterlimit: 10;
}
.g4_8{
fill: #1A9479;
}
.g5_8{
fill: #F7DE6A;
}
.g6_8{
fill: #4C3120;
}
.g7_8{
fill: none;
stroke: #E08F60;
stroke-width: 22.591;
stroke-linecap: round;
stroke-miterlimit: 10;
}
.g8_8{
fill: #E56D3C;
}
.g9_8{
fill: #F0B188;
}
.ga_8{
fill: #E08F60;
}
.gb_8{
fill: #F9E2BB;
}
.gc_8{
fill: #F5C994;
}
.gd_8{
fill: #F4CFA9;
}
.ge_8{
fill: #211511;
}
.gf_8{
fill: #5D3E2C;
}
.gg_8{
fill: #EF9749;
}
.gh_8{
fill: #7CBEE9;
}
.gi_8{
fill: #0F110F;
}
.gj_8{
fill: #050604;
}
.gk_8{
fill: none;
stroke: #7CBEE9;
stroke-width: 22.591;
stroke-linecap: round;
stroke-miterlimit: 10;
}
.gl_8{
fill: #469DD1;
}
.gm_8{
fill: #CEE1F1;
}
.gn_8{
fill: none;
stroke: #505B59;
stroke-width: 0.763;
stroke-miterlimit: 10;
}
.go_8{
fill: #F05755;
}
.gp_8{
fill: #8A3839;
}
.gq_8{
fill: #F5D430;
}
.gr_8{
fill: #96C7EB;
}
.gs_8{
fill: #F27C7A;
}
.gt_8{
fill: #9377B5;
}
]]></style>
</defs>
<path d="M0 1286.2H909.4V0H0V1286.2Z" class="g0_8"/>
<path d="M870.9 1208.3V78c-21.6 0 -39 -17.5 -39 -39H78.3c0 21.5 -17.4 39 -38.9 39V1208.3c21.5 0 38.9 17.4 38.9 38.9H831.9c0 -21.5 17.4 -38.9 39 -38.9Z" class="g1_8"/>
<path d="M870.9 1208.3V78c-21.6 0 -39 -17.5 -39 -39H78.3c0 21.5 -17.4 39 -38.9 39V1208.3c21.5 0 38.9 17.4 38.9 38.9H831.9c0 -21.5 17.4 -38.9 39 -38.9Zm-.4 0V78c-21.6 0 -39 -17.5 -39 -39H78C78 60.5 60.5 78 39 78V1208.3c21.5 0 39 17.4 39 38.9H831.5c0 -21.5 17.4 -38.9 39 -38.9Z" class="g2_8"/>
<path d="M870.5 1208.3V78c-21.6 0 -39 -17.5 -39 -39H78C78 60.5 60.5 78 39 78V1208.3c21.5 0 39 17.4 39 38.9H831.5c0 -21.5 17.4 -38.9 39 -38.9Z" class="g3_8"/>
<path d="M882.1 39c0 6.4 -5.2 11.6 -11.6 11.6c-6.4 0 -11.6 -5.2 -11.6 -11.6c0 -6.4 5.2 -11.6 11.6 -11.6c6.4 0 11.6 5.2 11.6 11.6Z" class="g4_8"/>
<path d="M50.6 39c0 6.4 -5.2 11.6 -11.6 11.6C32.6 50.6 27.4 45.4 27.4 39C27.4 32.6 32.6 27.4 39 27.4c6.4 0 11.6 5.2 11.6 11.6Z" class="g4_8"/>
<path d="M882.1 1247.2c0 6.5 -5.2 11.7 -11.6 11.7c-6.4 0 -11.6 -5.2 -11.6 -11.7c0 -6.4 5.2 -11.6 11.6 -11.6c6.4 0 11.6 5.2 11.6 11.6Z" class="g4_8"/>
<path d="M50.6 1247.2c0 6.5 -5.2 11.7 -11.6 11.7c-6.4 0 -11.6 -5.2 -11.6 -11.7c0 -6.4 5.2 -11.6 11.6 -11.6c6.4 0 11.6 5.2 11.6 11.6Z" class="g4_8"/>
<image preserveAspectRatio="none" x="379" y="1172" width="151" height="37" xlink:href="img/1.png"/>
<path d="M569.1 703H51.7V657.4H569.1c11.9 0 21.6 9.7 21.6 21.7v2.3c0 11.9 -9.7 21.6 -21.6 21.6Z" class="g0_8"/>
<image clip-path="url(#c0_8)" preserveAspectRatio="none" x="387" y="1006" width="39" height="38" xlink:href="img/2.png"/>
<image preserveAspectRatio="none" x="388" y="826" width="38" height="38" xlink:href="img/3.png"/>
<g clip-path="url(#c1_8)" opacity="0.3">
<path d="M309.5 778.8H134c-6.3 0 -11.3 -5 -11.3 -11.3v-6.2c0 -6.2 5 -11.3 11.3 -11.3H309.5c6.3 0 11.3 5.1 11.3 11.3v6.2c0 6.3 -5 11.3 -11.3 11.3Z" class="g4_8"/>
</g>
<g clip-path="url(#c2_8)">
<path d="M320.9 951.2h-198V800.7h198V951.2Z" class="g5_8"/>
<path d="M241.1 935.8H196.6c-11.1 0 -20.2 -9 -20.2 -20.2V881h84.9v34.6c0 11.2 -9.1 20.2 -20.2 20.2Z" class="g6_8"/>
<path d="M206.8 928.8c0 0 -10.4 7.3 -34.8 54.5m58.8 -54.5c0 0 10.4 7.3 34.7 54.5" class="g7_8"/>
<path d="M247.2 1033.2H190.6l2.9 -50.3c1 -17.9 12.1 -31.7 25.4 -31.7c13.2 0 24.3 13.8 25.3 31.7Z" class="g8_8"/>
<path d="M227.5 921.3c0 -.1 0 -.3 0 -.4q0 -.1 0 -.2c0 0 0 -.1 0 -.1V913H210.2v7.8c0 .1 -.1 .1 -.1 .1h.1v2.7h2.7c1.6 .6 3.6 1 5.9 1c2.3 0 4.4 -.4 6 -1h2.7Z" class="g9_8"/>
<path d="M233.8 927.4c-.9 -3.2 -3.3 -5.6 -6.3 -6.7q0 .1 0 .2c0 2 -3.9 3.7 -8.7 3.7c-4.7 0 -8.6 -1.6 -8.6 -3.6c-2.8 1.1 -5 3.4 -5.8 6.4l.6 29.2h27.6Z" class="ga_8"/>
<path d="M220.4 924.3c-1 2.3 -4.3 3.1 -7.4 1.8c-3.1 -1.3 -4.7 -4.3 -3.7 -6.6Z" class="g1_8"/>
<path d="M217.5 924.3c1 2.3 4.3 3.1 7.4 1.8c3 -1.3 4.7 -4.3 3.7 -6.6Z" class="g1_8"/>
<path d="M260.9 884H176.7c-6.7 0 -12.2 -5.4 -12.2 -12.1c0 -6.7 5.5 -12.2 12.2 -12.2h84.2c6.8 0 12.2 5.5 12.2 12.2c0 6.7 -5.4 12.1 -12.2 12.1Z" class="gb_8"/>
<path d="M261.3 879h-85c-4.2 0 -7.6 -3.4 -7.6 -7.6c0 -4.2 3.4 -7.6 7.6 -7.6h85c4.2 0 7.6 3.4 7.6 7.6c0 4.2 -3.4 7.6 -7.6 7.6Z" class="g9_8"/>
<path d="M260.8 878.2c0 7.7 -3.1 14.5 -7.6 20.3c-18.7 24.2 -50.1 24.2 -68.8 0c-4.5 -5.8 -7.5 -12.6 -7.5 -20.3c0 -28.4 19 -50.3 42.1 -50.3c23.2 0 41.8 21.9 41.8 50.3Z" class="gb_8"/>
<path d="M220.6 885.8c0 1 -.8 1.8 -1.8 1.8c-1 0 -1.8 -.8 -1.8 -1.8c0 -.9 .8 -1.7 1.8 -1.7c1 0 1.8 .8 1.8 1.7Z" class="gc_8"/>
<path d="M197.2 870.2c-.2 0 -.5 0 -.7 -.2c-.6 -.3 -.7 -1.1 -.4 -1.7c.1 -.1 1.2 -1.8 3.1 -2.9c1.9 -1.1 4.8 -1.9 8.4 .4c.6 .4 .8 1.2 .4 1.8c-.4 .5 -1.1 .7 -1.7 .3c-4.7 -3 -7.7 1.3 -8 1.8c-.3 .3 -.7 .5 -1.1 .5Z" class="g6_8"/>
<path d="M240.4 870.2c.2 0 .5 0 .7 -.2c.6 -.3 .7 -1.1 .4 -1.7c-.1 -.1 -1.2 -1.8 -3.1 -2.9c-1.9 -1.1 -4.8 -1.9 -8.4 .4c-.6 .4 -.8 1.2 -.4 1.8c.4 .5 1.1 .7 1.7 .3c4.7 -3 7.7 1.3 8 1.8c.3 .3 .7 .5 1.1 .5Z" class="g6_8"/>
<path d="M201.9 891.2c0 4.4 -3.5 7.9 -7.9 7.9c-4.4 0 -8 -3.5 -8 -7.9c0 -4.4 3.6 -8 8 -8c4.4 0 7.9 3.6 7.9 8Z" class="gd_8"/>
<path d="M251.6 891.2c0 4.4 -3.6 7.9 -8 7.9c-4.4 0 -7.9 -3.5 -7.9 -7.9c0 -4.4 3.5 -8 7.9 -8c4.4 0 8 3.6 8 8Z" class="gd_8"/>
<path d="M218.9 899h-.2c-4.7 0 -6.5 -3.6 -6.8 -5.5c-.1 -.5 .2 -.9 .7 -1c.5 -.1 1 .2 1.1 .7c0 .2 .8 4 5 4h.2c4.2 0 5 -3.8 5 -4c.1 -.5 .6 -.8 1.1 -.7c.5 .1 .8 .5 .7 1c-.3 1.9 -2.1 5.5 -6.8 5.5Z" class="g9_8"/>
<path d="M205.5 877.1c0 1.5 -1.3 2.8 -2.9 2.8c-1.5 0 -2.8 -1.3 -2.8 -2.8c0 -1.6 1.3 -2.8 2.8 -2.8c1.6 0 2.9 1.2 2.9 2.8Z" class="ge_8"/>
<path d="M237.8 877.1c0 1.5 -1.3 2.8 -2.8 2.8c-1.6 0 -2.8 -1.3 -2.8 -2.8c0 -1.6 1.2 -2.8 2.8 -2.8c1.5 0 2.8 1.2 2.8 2.8Z" class="ge_8"/>
<path d="M218.9 844.4c5.7 0 16.3 .1 26.1 7.3c13.3 9.8 15.2 25.7 15.5 28.8c.9 -2.7 1.4 -5.5 1.4 -8.5c0 -27.5 -19.1 -48.7 -43 -48.7c-23.9 0 -43.5 21.2 -43.5 48.7c0 3 .5 5.8 1.4 8.5c.3 -3.1 1.9 -18.4 14.8 -28.3c10.1 -7.9 21.3 -7.8 27.3 -7.8Z" class="gf_8"/>
<path d="M202.7 837.3c0 0 .9 26.4 20.4 26.4h32.8c0 0 -5.7 -24.6 -15.9 -26.4c-10.3 -1.9 -37.3 0 -37.3 0Z" class="g6_8"/>
<path d="M218.9 823.3c-8.2 0 -15.9 2.6 -22.5 7c1 6.9 7.7 15.6 7.7 15.6v.1c5.9 -1.6 11.2 -1.6 14.8 -1.6c5.7 0 16.3 .1 26.1 7.3c13.3 9.8 15.2 25.7 15.5 28.8c.9 -2.7 1.4 -5.5 1.4 -8.5c0 -27.5 -19.1 -48.7 -43 -48.7Z" class="g6_8"/>
<path d="M219.7 935.5c0 .5 -.3 .8 -.8 .8c-.4 0 -.8 -.3 -.8 -.8c0 -.4 .4 -.8 .8 -.8c.5 0 .8 .4 .8 .8Z" class="g8_8"/>
<path d="M219.7 941c0 .4 -.3 .8 -.8 .8c-.4 0 -.8 -.4 -.8 -.8c0 -.5 .4 -.9 .8 -.9c.5 0 .8 .4 .8 .9Z" class="g8_8"/>
<path d="M219.7 946.4c0 .4 -.3 .8 -.8 .8c-.4 0 -.8 -.4 -.8 -.8c0 -.5 .4 -.8 .8 -.8c.5 0 .8 .3 .8 .8Z" class="g8_8"/>
</g>
<g clip-path="url(#c3_8)">
<path d="M320.7 1119.3h-198V968.8h198v150.5Z" class="gg_8"/>
<path d="M230.2 1090.2c0 -.1 0 -.3 0 -.4c0 0 0 -.1 0 -.1c0 -.1 0 -.2 0 -.2v-7.6H212.9v10.6h2.7c1.6 .6 3.7 1 5.9 1c2.3 0 4.4 -.4 6 -1h2.7Z" class="g9_8"/>
<path d="M236.5 1096.3c-.9 -3.2 -3.3 -5.6 -6.3 -6.6c0 0 0 .1 0 .1c0 2 -3.9 3.7 -8.7 3.7c-4.7 0 -8.5 -1.6 -8.6 -3.6c-2.8 1.1 -5 3.4 -5.8 6.4l-11.8 59.1h53Z" class="gh_8"/>
<path d="M268.7 1049.4H175.3c-7.4 0 -13.4 -6.1 -13.4 -13.5c0 -7.4 6 -13.4 13.4 -13.4h93.4c7.4 0 13.4 6 13.4 13.4c0 7.4 -6 13.5 -13.4 13.5Z" class="gb_8"/>
<path d="M269.1 1043.8H174.9c-4.6 0 -8.4 -3.8 -8.4 -8.4c0 -4.7 3.8 -8.5 8.4 -8.5h94.2c4.6 0 8.4 3.8 8.4 8.5c0 4.6 -3.8 8.4 -8.4 8.4Z" class="g9_8"/>
<path d="M268.5 1042.9c0 8.6 -3.5 16.1 -8.4 22.5c-20.7 26.8 -55.5 26.8 -76.2 0c-4.9 -6.4 -8.3 -13.9 -8.3 -22.5c0 -31.5 21 -55.7 46.6 -55.7c25.7 0 46.3 24.2 46.3 55.7Z" class="gb_8"/>
<path d="M224 1051.4c0 1.1 -.9 1.9 -2 1.9c-1.1 0 -2 -.8 -2 -1.9c0 -1.1 .9 -2 2 -2c1.1 0 2 .9 2 2Z" class="gc_8"/>
<path d="M197.6 1032.5c-.2 -.1 -.5 -.2 -.6 -.5c-.5 -.5 -.5 -1.4 .1 -1.9c.1 -.1 1.7 -1.5 4.2 -2.2c2.3 -.6 5.7 -.5 8.8 3c.5 .6 .5 1.5 -.1 2c-.6 .5 -1.5 .5 -2 -.1c-4.1 -4.7 -8.6 -1 -9.1 -.6c-.3 .3 -.8 .4 -1.3 .3Z" class="gi_8"/>
<path d="M246.4 1032.5c.3 -.1 .5 -.2 .7 -.5c.5 -.5 .4 -1.4 -.1 -1.9c-.1 -.1 -1.8 -1.5 -4.2 -2.2c-2.3 -.6 -5.7 -.5 -8.9 3c-.5 .6 -.4 1.5 .2 2c.6 .5 1.4 .5 2 -.1c4 -4.7 8.5 -1 9 -.6c.4 .3 .9 .4 1.3 .3Z" class="gi_8"/>
<path d="M203.3 1057.3c0 4.8 -3.9 8.8 -8.8 8.8c-4.8 0 -8.8 -4 -8.8 -8.8c0 -4.9 4 -8.8 8.8 -8.8c4.9 0 8.8 3.9 8.8 8.8Z" class="gd_8"/>
<path d="M258.3 1057.3c0 4.8 -4 8.8 -8.8 8.8c-4.9 0 -8.8 -4 -8.8 -8.8c0 -4.9 3.9 -8.8 8.8 -8.8c4.8 0 8.8 3.9 8.8 8.8Z" class="gd_8"/>
<path d="M222.1 1066h-.2c-5.2 0 -7.2 -4 -7.6 -6.1c-.1 -.6 .3 -1.1 .9 -1.2c.5 -.1 1.1 .3 1.2 .9c0 .1 .8 4.3 5.5 4.3h.2c4.7 0 5.5 -4.2 5.5 -4.4c.1 -.5 .7 -.9 1.2 -.8c.6 .1 1 .6 .9 1.2c-.4 2.1 -2.4 6.1 -7.6 6.1Z" class="g9_8"/>
<path d="M208.3 1039.3c0 1.4 -1.1 2.5 -2.5 2.5c-1.4 0 -2.5 -1.1 -2.5 -2.5c0 -1.4 1.1 -2.5 2.5 -2.5c1.4 0 2.5 1.1 2.5 2.5Z" class="gj_8"/>
<path d="M240.7 1039.3c0 1.4 -1.1 2.5 -2.5 2.5c-1.3 0 -2.5 -1.1 -2.5 -2.5c0 -1.4 1.2 -2.5 2.5 -2.5c1.4 0 2.5 1.1 2.5 2.5Z" class="gj_8"/>
<path d="M265.6 1022.2c0 0 -49.5 -10.1 -50.7 -30.4c0 0 40.6 -16.9 50.7 30.4Z" class="gj_8"/>
<path d="M178.4 1023.2c0 0 65.7 -9.4 67.3 -31.3c-18.8 -9 -39.8 -7.1 -53.4 4.9c-10.5 9.3 -13.1 21.6 -13.9 26.4Z" class="gi_8"/>
<path d="M236.4 1012c-3.8 5.6 -11.9 6.7 -11.9 6.7c0 0 -2 -8 1.7 -13.5c3.8 -5.6 11.9 -6.6 11.9 -6.6c0 0 2 7.9 -1.7 13.4Z" class="gi_8"/>
<path d="M209.7 1096.1c0 0 -10.4 7.3 -34.7 54.6m58.8 -54.6c0 0 10.3 7.3 34.7 54.6" class="gk_8"/>
<path d="M219.2 1089l2.5 8.5l-9.5 -5.6Z" class="gh_8"/>
<path d="M222.8 1089.1l-2.5 8.4l9.5 -5.6Z" class="gh_8"/>
<path d="M208.9 1088.7l1.7 -2.4c.3 -.4 .8 -.6 1.2 -.4l7.1 2.4c.6 .2 .8 .9 .6 1.5l-2.5 5.8c0 .1 -.1 .1 -.2 .1l-7.7 -5.5c-.5 -.4 -.6 -1.1 -.2 -1.5Z" class="gl_8"/>
<path d="M233.2 1088.7l-1.7 -2.4c-.3 -.4 -.8 -.6 -1.3 -.4l-7 2.4c-.6 .2 -.9 .9 -.6 1.5l2.5 5.8c0 .1 .1 .1 .1 .1l7.8 -5.5c.4 -.4 .6 -1.1 .2 -1.5Z" class="gl_8"/>
<path d="M222.5 1105.8c0 .8 -.6 1.4 -1.4 1.4c-.8 0 -1.5 -.6 -1.5 -1.4c0 -.8 .7 -1.4 1.5 -1.4c.8 0 1.4 .6 1.4 1.4Z" class="g1_8"/>
<path d="M232.3 1116.5v0c-2.1 0 -3.9 -1.7 -3.9 -3.9v-3.9h7.8v3.9c0 2.2 -1.7 3.9 -3.9 3.9Z" class="gl_8"/>
</g>
<path d="M307.5 567.9H136c-7.3 0 -13.1 -5.9 -13.1 -13.1V338.7c0 -7.3 5.8 -13.2 13.1 -13.2H307.5c7.2 0 13.1 5.9 13.1 13.2V554.8c0 7.2 -5.9 13.1 -13.1 13.1Z" class="gm_8"/>
<path d="M198 456.8c15.8 17.8 33.1 42.8 43.4 75.6c1.8 5.7 3.3 11.3 4.4 16.7m-3.9 -90.8c-.9 16.9 -1.6 34.1 -2.3 51.5c-.5 15.5 -1 30.9 -1.3 46.1M275 440.5c-1.5 26.6 -9.5 43.6 -17.1 54.6c-7.8 11.2 -18.6 21.1 -23.8 40.3c-2.3 8.1 -2.7 15.2 -2.7 20M205.5 411.3c12.3 23.4 25.4 55.3 31.9 94.7c2.4 14.8 3.6 28.7 4 41.4m.2 -147.9c-8.6 21.2 -26 72.9 -3.1 120.9c2.5 5.3 5.6 10.7 9.4 16.1M171 425.3c15.2 13 35.1 32.9 52.6 61.1c12.8 20.5 19.1 47 24.3 62.7M271.9 397c-10.9 20.5 -24.1 51.5 -29.6 91.1c-3.3 23.6 -3 44.4 -1.6 61.3M171.1 484.8c1.6 8.6 -1.7 -4.8 7.1 4.5c17.7 18.7 56.3 18 65 33.8c3.2 6 4.8 15.8 -2.8 32.8" class="gn_8"/>
<path d="M238.4 522.9c-1.1 -.7 -4.2 2.4 -6.3 4.5c-3.1 3.1 -7.3 8 -11.3 15.4c2 -.8 4 -1.6 5.9 -2.4c.1 2.3 .2 4.5 .3 6.7c1.5 -1.5 3.1 -3.4 4.7 -5.7c1.5 -2.1 2.6 -4.2 3.5 -5.9c2.2 -5.4 4.6 -11.7 3.2 -12.6Z" class="go_8"/>
<path d="M241.7 523.7c.9 -1 4.6 1.3 7.1 2.9c3.8 2.3 9 6.2 14.5 12.4c-2.1 -.3 -4.2 -.6 -6.3 -.9c.5 2.1 .9 4.3 1.3 6.5c-1.8 -1.1 -3.8 -2.6 -5.9 -4.5c-1.9 -1.7 -3.4 -3.4 -4.7 -5c-3.4 -4.6 -7.2 -10.3 -6 -11.4Z" class="go_8"/>
<path d="M241.1 518.7c10.6 -5.9 14.2 -6.6 15.4 -5.9c.1 .1 2.4 1.5 2.4 1.5c.6 .6 1.1 1 1.5 1.8c.6 1.4 -.2 2.1 .4 3c.6 .9 1.5 .7 2.1 1.5c.5 .9 .2 1.9 0 2.6c-1.5 5.4 -.7 5.8 -1.5 6.6c-3.2 3.3 -13.6 -3.1 -20.1 -5.8c-.1 0 -.2 -.1 -.4 -.2c-1 -1 -.4 -3.3 .2 -5.1Z" class="go_8"/>
<path d="M237 520c-10.2 -5.5 -13.7 -6.1 -14.8 -5.4c-.1 .1 -2.2 1.5 -2.2 1.5c-.6 .5 -1.1 1 -1.4 1.8c-.6 1.4 .2 2 -.4 2.9c-.5 .8 -1.4 .6 -1.9 1.5c-.5 .7 -.1 1.7 0 2.4c.6 5.7 2.7 7.7 3.8 8.2c9.4 4.4 10.7 -5.2 16.9 -7.9c0 0 .2 -.1 .3 -.2c.1 -.1 .7 -.7 .5 -2.4c-.1 -.6 -.3 -1.4 -.8 -2.4Z" class="go_8"/>
<path clip-path="url(#c4_8)" d="M229.5 524.6c-4.1 1.8 -6.2 2.7 -7.7 4c-.8 .8 -4.6 4.3 -3.5 7.1c.9 2.3 4.8 3.3 7.6 2.4c2.2 -.8 3 -2.6 5.2 -5.6c4.4 -6 8.2 -7.4 7.6 -8.7c-.5 -1.2 -4.3 -.7 -6 -.3c-1 .2 -1.7 .4 -3.2 1.1Z" class="gp_8"/>
<path clip-path="url(#c5_8)" d="M241 523.3c5.3 .1 9.8 .4 13.1 .7c5.7 .5 8.9 1.1 9.5 3c.3 .9 -.1 2 -.3 2.6c-.7 1.9 -2.2 3 -3 3.4c-2 1.1 -4.7 .2 -10.1 -1.7c-5.8 -2 -7.1 -3.2 -7.9 -4.4c-.9 -1.3 -1.2 -2.6 -1.3 -3.6Z" class="gp_8"/>
<path d="M242.5 525.1c-.3 -.4 -.7 -.5 -.9 -.6c-.9 -.2 -1.4 .6 -2.7 .9c-.5 .1 -.9 .2 -1.1 .2c-.1 0 -.6 0 -1.1 -.4c-.2 -.3 -.4 -.7 -.5 -1.1l-.3 -3.5c-.1 -.9 .4 -1.7 1.2 -1.7c.5 -.2 1 -.4 1.5 -.5c.4 0 .8 .1 1.3 .1c.7 0 1.4 0 2 -.1c.1 0 .6 -.1 1 .3c.3 .3 .5 .7 .5 1.2l.4 3.4c0 .9 -.5 1.7 -1.3 1.8Z" class="go_8"/>
<path d="M156.1 393.2c.4 -7.9 4.3 -14.6 10.2 -17.2c8.6 -3.6 18.3 2.7 22.4 8.5c7.3 10.6 3.4 30.1 -12.2 46.1c-21.7 4.9 -39.9 -2.1 -44.8 -14c-2.6 -6.2 -2.8 -17.3 4.4 -22.9c5.2 -4.1 13 -4.2 20 -.5Z" class="gq_8"/>
<path d="M228 368.9c3.9 -8.1 10.8 -13.4 18 -13.5c10.5 -.2 18 10.6 19.7 18.4c3.1 14.1 -9.4 32.8 -32.6 42.7c-24.5 -4.3 -40.5 -19.4 -40.5 -33.8c0 -7.6 4.5 -19.3 14.4 -22c7.2 -1.9 15.4 1.3 21 8.2Z" class="gr_8"/>
<path d="M203.6 401.4c3.6 -7.5 10 -12.5 16.8 -12.6c9.8 -.1 16.7 10 18.3 17.3c2.9 13.1 -8.7 30.5 -30.3 39.7c-22.9 -3.9 -37.8 -18 -37.8 -31.4c0 -7.1 4.2 -18 13.5 -20.6c6.7 -1.8 14.2 1.2 19.5 7.6Z" class="gs_8"/>
<path d="M281.6 376.9c6.4 -4.6 14.1 -5.8 19.8 -2.8c8.2 4.4 9.4 16 7.4 22.8c-3.7 12.3 -21.4 21.5 -43.7 19.3c-17.3 -13.9 -23.2 -32.5 -17 -43.7c3.3 -5.9 11.8 -13.1 20.7 -10.9c6.4 1.5 11.3 7.6 12.8 15.3Z" class="gq_8"/>
<path d="M268.3 415.3c0 -.5 .5 -9 8.1 -13.2c4.9 -2.7 11.2 -2.6 15.6 .5c7.6 5.3 6.7 16.7 6.2 19.2c-1.1 6.4 -5.2 11.7 -7.8 14.7c-6.1 7.2 -11.8 9.9 -15.3 11.6c-3.7 -.2 -9.5 -1.1 -15.8 -4.3c-4.4 -2.3 -7.7 -5 -9.9 -7.1c-6.8 -6.9 -9.2 -15.9 -6.2 -22.8c.1 -.1 .1 -.2 .2 -.3c1.8 -4 5.9 -7.6 10.1 -8.3c5.5 -1 12.1 3 14.8 10Z" class="gs_8"/>
<path d="M236.4 428.5c3.4 -7.2 9.5 -11.9 15.9 -12c9.4 -.1 16 9.5 17.5 16.4c2.8 12.5 -8.3 29.1 -28.9 37.9c-21.9 -3.8 -36 -17.2 -36 -30c0 -6.7 4 -17.1 12.8 -19.5c6.4 -1.8 13.6 1.1 18.7 7.2Z" class="gt_8"/>
<path d="M187.8 434.6c.2 -7.2 3.5 -13.4 8.8 -15.8c7.6 -3.6 16.7 1.9 20.5 7.1c6.9 9.3 3.8 27.1 -9.9 42C187.7 472.8 171 467 166.3 456.4c-2.5 -5.6 -3 -15.7 3.4 -20.9c4.6 -3.8 11.7 -4.1 18.1 -.9Z" class="gr_8"/>
<g clip-path="url(#c1_8)">
<g opacity="0.5">
<path d="M207.1 371.1c-3.6 1.7 -5.4 3 -6 2.4c-.8 -.8 .6 -4.5 3.2 -6.6c5.1 -4.1 14.2 -1.3 14.3 .1c0 .9 -4 .7 -11.5 4.1Z" class="g1_8"/>
</g>
<g opacity="0.5">
<path d="M259.7 375.4c-3.8 2.4 -5.6 4.1 -6.4 3.5c-1 -.8 0 -5.1 2.6 -7.8c5.1 -5.3 15.6 -3.6 15.9 -2c.2 1 -4.2 1.3 -12.1 6.3Z" class="g1_8"/>
</g>
<g opacity="0.5">
<path d="M140 402.9c-2 3.5 -2.7 5.5 -3.6 5.4c-1.1 -.2 -2.1 -4 -1.1 -7.2c1.8 -6.3 8 -7.6 8.8 -6.5c.6 .8 .1 1.2 -4.1 8.3Z" class="g1_8"/>
</g>
<g opacity="0.85">
<path d="M198.6 428.5c-3.7 1.7 -5.4 3 -6.1 2.4c-.8 -.8 .6 -4.5 3.2 -6.6c5.1 -4.1 14.2 -1.3 14.3 .1c0 .9 -3.9 .7 -11.4 4.1Z" class="g1_8"/>
</g>
<g opacity="0.85">
<path d="M247.3 429.6c-3.3 2.3 -4.7 3.9 -5.5 3.4c-.9 -.6 -.3 -4.5 1.8 -7c4.3 -5.1 13.7 -4.1 14.1 -2.8c.2 .9 -3.7 1.5 -10.4 6.4Z" class="g1_8"/>
</g>
<g opacity="0.85">
<path d="M183 403.3c-4.9 4.7 -5.7 9.4 -6.5 9.2c-1 -.3 -1.6 -7.5 2.6 -12.1c.2 -.3 4.1 -4.4 9.1 -3.8c2.7 .3 5.2 1.9 5.1 2.4c-.1 .4 -1.5 0 -3.3 .2c-3.2 .4 -5.4 2.5 -7 4.1Z" class="g1_8"/>
</g>
<g opacity="0.5">
<path d="M283.5 408.3c-5.5 1.9 -7.8 5.2 -8.3 4.8c-.7 -.6 1.4 -6.4 6.4 -8.4c.2 -.1 4.7 -1.9 8.4 .4c2 1.2 3.3 3.4 3 3.7c-.2 .3 -1.2 -.6 -2.6 -1c-2.6 -.9 -5 -.1 -6.9 .5Z" class="g1_8"/>
</g>
</g>
<path d="M283.1 441.8c4.8 -3.5 10.4 -4.3 14.5 -2.1c6.1 3.2 6.9 11.7 5.5 16.7c-2.7 9.1 -15.7 15.8 -32 14.2C258.3 460.4 254 446.7 258.5 438.5c2.4 -4.3 8.7 -9.6 15.2 -8c4.7 1.1 8.3 5.6 9.4 11.3Z" class="gq_8"/>
<g clip-path="url(#c1_8)" opacity="0.5">
<path d="M267.1 440.6c-2.8 1.8 -4.1 3 -4.7 2.6c-.8 -.6 0 -3.7 1.9 -5.7c3.7 -3.9 11.4 -2.6 11.6 -1.5c.2 .8 -3.1 1 -8.8 4.6Z" class="g1_8"/>
</g>
<path d="M167.1 459.4c1.2 -6.8 5.2 -12.3 10.6 -13.9c7.9 -2.3 15.7 4.2 18.7 9.7c5.3 9.9 -.1 26.5 -15.4 38.8c-19.3 2 -34.4 -5.9 -37.5 -16.7c-1.6 -5.7 -.7 -15.4 6.2 -19.5c4.9 -3 11.7 -2.3 17.4 1.6Z" class="gt_8"/>
<g clip-path="url(#c1_8)">
<g opacity="0.85">
<path d="M176.6 457.7c-2.2 2.8 -3 4.5 -3.8 4.3c-.9 -.3 -1.3 -3.8 -.1 -6.4c2.3 -5.3 10.5 -6.7 11.1 -5.7c.4 .7 -2.7 2.1 -7.2 7.8Z" class="g1_8"/>
</g>
<g opacity="0.3">
<path d="M309.5 303.7H134c-6.3 0 -11.3 -5 -11.3 -11.3v-6.2c0 -6.3 5 -11.3 11.3 -11.3H309.5c6.3 0 11.3 5 11.3 11.3v6.2c0 6.3 -5 11.3 -11.3 11.3Z" class="g4_8"/>
</g>
</g>
<path d="M569.1 227.8H51.7V182.2H569.1c11.9 0 21.6 9.7 21.6 21.6v2.4c0 11.9 -9.7 21.6 -21.6 21.6Z" class="g0_8"/>
</svg>