<?xml version="1.0" encoding="UTF-8" standalone="no"?>
<!DOCTYPE svg PUBLIC "-//W3C//DTD SVG 1.1//EN"
"http://www.w3.org/Graphics/SVG/1.1/DTD/svg11.dtd">
<svg viewBox="0 0 909 1286" version="1.1" xmlns="http://www.w3.org/2000/svg" xmlns:xlink="http://www.w3.org/1999/xlink">
<defs>
<clipPath id="c0_1"><path d="M-.2 1286.5V-.2h910V1286.5Z"/></clipPath>
<style type="text/css"><![CDATA[
.g0_1{
fill: #F8CCCC;
}
.g1_1{
fill: #FFF;
}
.g2_1{
fill: none;
stroke: #1A9479;
stroke-width: 24.444;
stroke-miterlimit: 10;
}
.g3_1{
fill: none;
stroke: #FFF;
stroke-width: 1.527;
stroke-miterlimit: 10;
}
.g4_1{
fill: #1A9479;
}
.g5_1{
fill: #0F5C4D;
}
.g6_1{
fill: none;
stroke: #1A9479;
stroke-width: 1.527;
stroke-miterlimit: 10;
}
.g7_1{
fill: none;
stroke: #EF4F4F;
stroke-width: 1.527;
stroke-miterlimit: 10;
}
.g8_1{
fill: #D71634;
}
.g9_1{
fill: #231F20;
}
.ga_1{
fill: none;
stroke: #545454;
stroke-width: 1.527;
stroke-linecap: round;
stroke-linejoin: round;
}
.gb_1{
fill: #D8B8B8;
}
.gc_1{
fill: none;
stroke: #414142;
stroke-width: 1.527;
stroke-miterlimit: 10;
}
]]></style>
</defs>
<path d="M0 1286.2H909.4V0H0V1286.2Z" class="g0_1"/>
<path d="M870.9 1208.3V78c-21.6 0 -39 -17.5 -39 -39H78.3c0 21.5 -17.4 39 -38.9 39V1208.3c21.5 0 38.9 17.4 38.9 38.9H831.9c0 -21.5 17.4 -38.9 39 -38.9Z" class="g1_1"/>
<path d="M870.9 1208.3V78c-21.6 0 -39 -17.5 -39 -39H78.3c0 21.5 -17.4 39 -38.9 39V1208.3c21.5 0 38.9 17.4 38.9 38.9H831.9c0 -21.5 17.4 -38.9 39 -38.9Zm-.4 0V78c-21.6 0 -39 -17.5 -39 -39H78C78 60.5 60.5 78 39 78V1208.3c21.5 0 39 17.4 39 38.9H831.5c0 -21.5 17.4 -38.9 39 -38.9Z" class="g2_1"/>
<path d="M870.5 1208.3V78c-21.6 0 -39 -17.5 -39 -39H78C78 60.5 60.5 78 39 78V1208.3c21.5 0 39 17.4 39 38.9H831.5c0 -21.5 17.4 -38.9 39 -38.9Z" class="g3_1"/>
<path d="M882.1 39c0 6.4 -5.2 11.6 -11.6 11.6c-6.4 0 -11.6 -5.2 -11.6 -11.6c0 -6.4 5.2 -11.6 11.6 -11.6c6.4 0 11.6 5.2 11.6 11.6Z" class="g4_1"/>
<path d="M50.6 39c0 6.4 -5.2 11.6 -11.6 11.6C32.6 50.6 27.4 45.4 27.4 39C27.4 32.6 32.6 27.4 39 27.4c6.4 0 11.6 5.2 11.6 11.6Z" class="g4_1"/>
<path d="M882.1 1247.2c0 6.5 -5.2 11.7 -11.6 11.7c-6.4 0 -11.6 -5.2 -11.6 -11.7c0 -6.4 5.2 -11.6 11.6 -11.6c6.4 0 11.6 5.2 11.6 11.6Z" class="g4_1"/>
<path d="M50.6 1247.2c0 6.5 -5.2 11.7 -11.6 11.7c-6.4 0 -11.6 -5.2 -11.6 -11.7c0 -6.4 5.2 -11.6 11.6 -11.6c6.4 0 11.6 5.2 11.6 11.6Z" class="g4_1"/>
<path d="M809.4 430.2h-316V372.1c0 -12.2 9.9 -22.1 22.1 -22.1H787.3c12.2 0 22.1 9.9 22.1 22.1Z" class="g4_1"/>
<path d="M809.4 432.4h-316v-8.2h316v8.2Z" class="g5_1"/>
<path d="M729.6 737.9H493.4V432.5h316V665.6Z" class="g0_1"/>
<path d="M759.5 327.4c-7.5 0 -13.5 6.1 -13.5 13.5v37.9c0 7.5 6 13.6 13.5 13.6c7.5 0 13.6 -6.1 13.6 -13.6V340.9c0 -7.4 -6.1 -13.5 -13.6 -13.5m0 70.3c-10.4 0 -18.9 -8.5 -18.9 -18.9V340.9c0 -10.4 8.5 -18.9 18.9 -18.9c10.4 0 18.9 8.5 18.9 18.9v37.9c0 10.4 -8.5 18.9 -18.9 18.9Z" class="g0_1"/>
<path d="M654 302.7v0c-4.8 -4.7 -4.8 -12.5 0 -17.3l42.8 -42.8c4.8 -4.7 12.5 -4.7 17.3 0c4.8 4.8 4.8 12.6 0 17.4l-42.7 42.7c-4.8 4.8 -12.6 4.8 -17.4 0Zm0 -60.1v0c4.8 -4.7 12.6 -4.7 17.4 0l42.7 42.8c4.8 4.8 4.8 12.6 0 17.3c-4.8 4.8 -12.5 4.8 -17.3 0L654 260c-4.8 -4.8 -4.8 -12.6 0 -17.4Zm91 60.1v0c-4.8 -4.7 -4.8 -12.5 0 -17.3l42.8 -42.8c4.8 -4.7 12.5 -4.7 17.3 0c4.8 4.8 4.8 12.6 0 17.4l-42.8 42.7c-4.8 4.8 -12.5 4.8 -17.3 0Zm0 -60.1v0c4.8 -4.7 12.5 -4.7 17.3 0l42.8 42.8c4.8 4.8 4.8 12.6 0 17.3c-4.8 4.8 -12.5 4.8 -17.3 0L745 260c-4.8 -4.8 -4.8 -12.6 0 -17.4Z" class="g6_1"/>
<path d="M108.5 685.8v0c-4.8 -4.8 -4.8 -12.6 0 -17.3l42.8 -42.8c4.8 -4.8 12.5 -4.8 17.3 0c4.8 4.8 4.8 12.5 0 17.3l-42.7 42.8c-4.8 4.8 -12.6 4.8 -17.4 0Zm0 -60.1v0c4.8 -4.8 12.6 -4.8 17.4 0l42.7 42.8c4.8 4.7 4.8 12.5 0 17.3c-4.8 4.8 -12.5 4.8 -17.3 0L108.5 643c-4.8 -4.8 -4.8 -12.5 0 -17.3Zm91 60.1v0c-4.8 -4.8 -4.8 -12.6 0 -17.3l42.8 -42.8c4.8 -4.8 12.5 -4.8 17.3 0c4.8 4.8 4.8 12.5 0 17.3l-42.8 42.8c-4.7 4.8 -12.5 4.8 -17.3 0Zm0 -60.1v0c4.8 -4.8 12.6 -4.8 17.3 0l42.8 42.8c4.8 4.7 4.8 12.5 0 17.3c-4.8 4.8 -12.5 4.8 -17.3 0L199.5 643c-4.8 -4.8 -4.8 -12.5 0 -17.3Z" class="g7_1"/>
<path d="M590.5 862.7H51.7V817.1H590.5c12.2 0 22.1 9.9 22.1 22.1v1.4c0 12.2 -9.9 22.1 -22.1 22.1Z" class="g4_1"/>
<path d="M752.9 135.1v6.5h4.7v-6.5c0 -1.7 1.4 -3.1 3.1 -3.1h15.8v-4.7H760.7c-4.3 0 -7.8 3.5 -7.8 7.8Z" class="g8_1"/>
<path d="M797.4 127.3v6.4c0 1.7 -1.4 3.1 -3.1 3.1H787v4.7h7.3c4.3 0 7.8 -3.5 7.8 -7.8v-6.4Z" class="g8_1"/>
<path d="M761.4 141.5h10.4v2.4c0 1.7 -1.4 3.1 -3.1 3.1H752.9v.2c0 2.5 2 4.5 4.5 4.5h11.3c4.3 0 7.8 -3.5 7.8 -7.8v-7.2H761.4Z" class="g8_1"/>
<path d="M793.1 147h-6.9c-1.7 0 -3.1 -1.4 -3.1 -3.1V127.3h-4.7v16.6c0 4.3 3.5 7.8 7.8 7.8h11.4c2.5 0 4.5 -2 4.5 -4.5V147Z" class="g8_1"/>
<path d="M751.4 167.4c-1.8 0 -2.9 -1.1 -2.9 -2.5v-.1h1.6v.1c0 .7 .5 1.2 1.3 1.2c.9 0 1.4 -.5 1.4 -1.2c0 -.6 -.3 -1 -1.1 -1.1l-1 -.3c-1.3 -.2 -2.2 -1 -2.2 -2.3c0 -1.3 1 -2.4 2.8 -2.4c1.8 0 2.8 1.1 2.8 2.4v.1h-1.6v-.1c0 -.6 -.4 -1.1 -1.2 -1.1c-.8 0 -1.2 .5 -1.2 1.1c0 .6 .3 .9 1.1 1.1l1 .2c1.4 .3 2.2 1.1 2.2 2.4c0 1.4 -1.1 2.5 -3 2.5Z" class="g9_1"/>
<path d="M759.8 160.8c-.3 -.4 -.7 -.6 -1.3 -.6c-.6 0 -1 .2 -1.3 .6c-.3 .4 -.5 1.1 -.5 2.3c0 1.3 .2 1.9 .5 2.3c.3 .4 .7 .7 1.3 .7c.6 0 1 -.3 1.3 -.7c.3 -.4 .4 -1 .4 -2.3c0 -1.2 -.1 -1.9 -.4 -2.3m1.2 5.4c-.5 .7 -1.3 1.2 -2.5 1.2c-1.2 0 -2 -.5 -2.5 -1.2c-.6 -.8 -.8 -1.9 -.8 -3.1c0 -1.1 .2 -2.3 .8 -3.1c.5 -.7 1.3 -1.2 2.5 -1.2c1.2 0 2 .5 2.5 1.2c.6 .8 .7 2 .7 3.1c0 1.2 -.1 2.3 -.7 3.1Z" class="g9_1"/>
<path d="M767.2 159h1.6l-2.7 5v3.2h-1.5V164l-2.7 -5h1.6l1.9 3.6Z" class="g9_1"/>
<path d="M769.6 159h5v1.3h-3.5v2.1h3.1v1.2h-3.1v2.3h3.6v1.3h-5.1Z" class="g9_1"/>
<path d="M778.5 167.4c-1.9 0 -2.9 -1.1 -2.9 -2.5v-.1h1.5v.1c0 .7 .5 1.2 1.4 1.2c.8 0 1.4 -.5 1.4 -1.2c0 -.6 -.4 -1 -1.2 -1.1l-1 -.3c-1.3 -.2 -2.1 -1 -2.1 -2.3c0 -1.3 .9 -2.4 2.7 -2.4c1.8 0 2.8 1.1 2.8 2.4v.1h-1.5v-.1c0 -.6 -.5 -1.1 -1.3 -1.1c-.8 0 -1.2 .5 -1.2 1.1c0 .6 .3 .9 1.1 1.1l1 .2c1.4 .3 2.2 1.1 2.2 2.4c0 1.4 -1.1 2.5 -2.9 2.5Z" class="g9_1"/>
<path d="M789 163l2.8 4.2h-1.7l-2.3 -3.6H787v3.6h-1.5V159H787v3.4h.8l2 -3.4h1.7Z" class="g9_1"/>
<path d="M794 167.2h-1.6V159H794v8.2Z" class="g9_1"/>
<path d="M798.2 160.3h-1.4v5.6h1.4c1.3 0 1.8 -.6 1.8 -2.8c0 -2.2 -.5 -2.8 -1.8 -2.8m.1 6.9h-3V159h3c2.7 0 3.2 2 3.2 4.1c0 2.1 -.5 4.1 -3.2 4.1Z" class="g9_1"/>
<path d="M805.4 167.4c-1.9 0 -2.9 -1.1 -2.9 -2.5v-.1H804v.1c0 .7 .5 1.2 1.4 1.2c.8 0 1.4 -.5 1.4 -1.2c0 -.6 -.4 -1 -1.2 -1.1l-1 -.3c-1.3 -.2 -2.1 -1 -2.1 -2.3c0 -1.3 .9 -2.4 2.7 -2.4c1.8 0 2.8 1.1 2.8 2.4v.1h-1.5v-.1c0 -.6 -.5 -1.1 -1.3 -1.1c-.8 0 -1.2 .5 -1.2 1.1c0 .6 .3 .9 1.1 1.1l1 .2c1.4 .3 2.2 1.1 2.2 2.4c0 1.4 -1.1 2.5 -2.9 2.5Z" class="g9_1"/>
<g clip-path="url(#c0_1)">
<g opacity="0.7">
<path d="M526.2 511.8H776.6" class="ga_1"/>
</g>
<g opacity="0.7">
<path d="M526.2 569.6H776.6" class="ga_1"/>
</g>
<g opacity="0.7">
<path d="M526.2 622.1H776.6" class="ga_1"/>
</g>
<g opacity="0.7">
<path d="M526.2 682.7H776.6" class="ga_1"/>
</g>
</g>
<path d="M732.3 665.6h77.1l-79.8 72.3Z" class="gb_1"/>
<image preserveAspectRatio="none" x="379" y="1172" width="151" height="37" xlink:href="img/1.png"/>
<path d="M104.2 128.3v33.4M245.9 128.3v33.4" class="gc_1"/>
</svg>