<?xml version="1.0" encoding="UTF-8" standalone="no"?>
<!DOCTYPE svg PUBLIC "-//W3C//DTD SVG 1.1//EN"
"http://www.w3.org/Graphics/SVG/1.1/DTD/svg11.dtd">
<svg viewBox="0 0 909 1286" version="1.1" xmlns="http://www.w3.org/2000/svg" xmlns:xlink="http://www.w3.org/1999/xlink">
<defs>
<style type="text/css"><![CDATA[
.g0_9{
fill: #F8CCCC;
}
.g1_9{
fill: #FFF;
}
.g2_9{
fill: none;
stroke: #1A9479;
stroke-width: 24.444;
stroke-miterlimit: 10;
}
.g3_9{
fill: none;
stroke: #FFF;
stroke-width: 1.527;
stroke-miterlimit: 10;
}
.g4_9{
fill: #1A9479;
}
.g5_9{
fill: #F7D65D;
}
.g6_9{
fill: #F6EC6D;
}
.g7_9{
fill: #FCF6E6;
}
.g8_9{
fill: #B975B0;
}
.g9_9{
fill: #F7D757;
}
.ga_9{
fill: #F79F74;
}
.gb_9{
fill: #163F4B;
}
.gc_9{
fill: #336D76;
}
.gd_9{
fill: #F59A3F;
}
.ge_9{
fill: #F15B52;
}
.gf_9{
fill: #212121;
}
.gg_9{
fill: #D17E3A;
}
.gh_9{
fill: #EF9749;
}
.gi_9{
fill: #952854;
}
.gj_9{
fill: #C12D5F;
}
.gk_9{
fill: #D14330;
}
.gl_9{
fill: #F16248;
}
]]></style>
</defs>
<path d="M0 1286.2H909.4V0H0V1286.2Z" class="g0_9"/>
<path d="M870.9 1208.3V78c-21.6 0 -39 -17.5 -39 -39H78.3c0 21.5 -17.4 39 -38.9 39V1208.3c21.5 0 38.9 17.4 38.9 38.9H831.9c0 -21.5 17.4 -38.9 39 -38.9Z" class="g1_9"/>
<path d="M870.9 1208.3V78c-21.6 0 -39 -17.5 -39 -39H78.3c0 21.5 -17.4 39 -38.9 39V1208.3c21.5 0 38.9 17.4 38.9 38.9H831.9c0 -21.5 17.4 -38.9 39 -38.9Zm-.4 0V78c-21.6 0 -39 -17.5 -39 -39H78C78 60.5 60.5 78 39 78V1208.3c21.5 0 39 17.4 39 38.9H831.5c0 -21.5 17.4 -38.9 39 -38.9Z" class="g2_9"/>
<path d="M870.5 1208.3V78c-21.6 0 -39 -17.5 -39 -39H78C78 60.5 60.5 78 39 78V1208.3c21.5 0 39 17.4 39 38.9H831.5c0 -21.5 17.4 -38.9 39 -38.9Z" class="g3_9"/>
<path d="M882.1 39c0 6.4 -5.2 11.6 -11.6 11.6c-6.4 0 -11.6 -5.2 -11.6 -11.6c0 -6.4 5.2 -11.6 11.6 -11.6c6.4 0 11.6 5.2 11.6 11.6Z" class="g4_9"/>
<path d="M50.6 39c0 6.4 -5.2 11.6 -11.6 11.6C32.6 50.6 27.4 45.4 27.4 39C27.4 32.6 32.6 27.4 39 27.4c6.4 0 11.6 5.2 11.6 11.6Z" class="g4_9"/>
<path d="M882.1 1247.2c0 6.5 -5.2 11.7 -11.6 11.7c-6.4 0 -11.6 -5.2 -11.6 -11.7c0 -6.4 5.2 -11.6 11.6 -11.6c6.4 0 11.6 5.2 11.6 11.6Z" class="g4_9"/>
<path d="M50.6 1247.2c0 6.5 -5.2 11.7 -11.6 11.7c-6.4 0 -11.6 -5.2 -11.6 -11.7c0 -6.4 5.2 -11.6 11.6 -11.6c6.4 0 11.6 5.2 11.6 11.6Z" class="g4_9"/>
<image preserveAspectRatio="none" x="379" y="1172" width="151" height="37" xlink:href="img/1.png"/>
<path d="M812.2 1151.9H97.5c-9 0 -16.3 -7.3 -16.3 -16.3V429.8c0 -33.8 27.4 -61.2 61.2 -61.2h625c33.7 0 61.1 27.4 61.1 61.2v705.8c0 9 -7.3 16.3 -16.3 16.3Z" class="g0_9"/>
<path d="M434.6 322.3l13.6 -12.7c0 0 13.4 -1.7 10.9 10.3L450 334.4c0 0 -5.3 24 -23.4 10.6c-14.3 -10.6 8 -22.7 8 -22.7Z" class="g5_9"/>
<path d="M473.3 295.2c7 -2.1 13.9 7.7 15.3 23.3c.6 6.8 3 19.4 5.2 22.5c4.8 6.5 2.2 12 -14.4 11.2c-17 -.8 -12.2 -13.3 -12.2 -13.3L465 321.7c-4 -18.9 2.6 -24.8 8.3 -26.5Z" class="g5_9"/>
<path d="M430 295.9c2.4 21.4 19.2 31.2 38.4 29.1c19.2 -2.1 33.5 -15.5 31.1 -36.9C497.1 266.7 479 245.4 459.8 247.5c-19.2 2.1 -32.2 27 -29.8 48.4Z" class="g6_9"/>
<path d="M444.9 302.4c1.4 12.8 11.5 18.7 22.9 17.4c11.5 -1.3 20 -9.3 18.6 -22C484.9 285 474.1 272.3 462.7 273.6c-11.5 1.2 -19.2 16 -17.8 28.8Z" class="g7_9"/>
<path d="M479.6 276.9c.1 -2.1 1.3 -4 3 -5.2c5.9 -4.3 24 -17.4 32.4 -26.4c10.1 -10.8 23.3 1 12.1 16.5c-11.2 15.4 -38.5 27.5 -47 17.9c-.2 -.4 -.6 -1.2 -.5 -2.8Z" class="g6_9"/>
<path d="M444.1 273.7c-1.9 -.9 -4.1 -.8 -6.1 0c-6.6 3.1 -27 12.2 -38.9 15c-14.4 3.4 -10.8 20.8 8.2 18.8c19 -2.1 43 -19.8 38.9 -32c-.2 -.3 -.7 -1.1 -2.1 -1.8Z" class="g6_9"/>
<path d="M425.3 281.7c1.9 8.5 28.9 10 37.7 10.3c1.8 0 3.6 -.4 5.2 -1.2c7.9 -3.9 31.7 -16.7 29.8 -25.2c-2.2 -10.2 -20.3 -14.8 -40.4 -10.4c-20.1 4.5 -34.5 16.3 -32.3 26.5Z" class="g8_9"/>
<path d="M477.9 278.4l-.2 .6c0 .2 -.2 .4 -.4 .5l-.5 .3c-.5 .2 -.6 .9 -.1 1.2l.6 .3c.2 .1 .3 .3 .3 .5l.1 .6c0 .6 .7 .8 1.1 .4l.5 -.4c.2 -.1 .4 -.2 .6 -.2l.6 .2c.6 .1 1 -.5 .8 -1l-.3 -.5c-.1 -.2 -.1 -.5 0 -.7l.3 -.5c.3 -.5 -.1 -1.1 -.7 -1l-.6 .1c-.2 0 -.4 -.1 -.6 -.3l-.4 -.4c-.3 -.4 -1 -.2 -1.1 .3Z" class="g9_9"/>
<path d="M483.6 274.8l-.1 .6c-.1 .2 -.2 .4 -.4 .5l-.6 .3c-.5 .2 -.5 .9 0 1.2l.5 .3c.2 .1 .3 .3 .4 .5v.6c.1 .6 .8 .8 1.2 .4l.4 -.4c.2 -.2 .4 -.2 .6 -.2l.6 .2c.6 .1 1 -.5 .8 -1l-.3 -.6c-.1 -.2 -.1 -.4 .1 -.6l.3 -.5c.2 -.5 -.2 -1.1 -.7 -1l-.6 .1c-.3 0 -.5 -.1 -.6 -.3l-.4 -.4c-.4 -.4 -1.1 -.2 -1.2 .3Z" class="g9_9"/>
<path d="M405.7 213.3c-.3 -.7 -.5 -1.5 -.7 -2.3c-3 -12.2 5.7 -24.7 19.4 -28c7.7 -1.9 15.3 -.5 21.1 3.3c3.3 -6 9.4 -10.7 17.1 -12.6c13.7 -3.3 27.2 3.9 30.1 16c.2 .8 .4 1.6 .5 2.5c13.4 5.7 23.3 16 26.7 30.1c6.8 28.1 -18.1 47 -52.4 55.2c-34.3 8.3 -65 2.9 -71.8 -25.1c-3.4 -14.1 .7 -27.9 10 -39.1Z" class="g6_9"/>
<path d="M442.9 199.7c-3.3 -8.8 -13.1 -13.1 -21.9 -9.8c-8.8 3.3 -13.2 13 -9.9 21.8l4.6 10.2l30.5 -11.5l-3.3 -10.7Z" class="ga_9"/>
<path d="M447 210.7c1.1 2.7 -6.5 4 -15.2 7.3c-8.8 3.3 -15.3 7.4 -16.4 4.6c-1 -2.7 4.4 -9.8 13.1 -13.1c8.8 -3.3 17.5 -1.6 18.5 1.2Z" class="gb_9"/>
<path d="M423.6 213.7v.7c0 .2 -.1 .5 -.3 .6l-.5 .4c-.5 .3 -.4 1.1 .2 1.3l.6 .2c.3 0 .4 .2 .5 .5l.2 .6c.2 .6 1 .7 1.3 .2l.4 -.6c.2 -.2 .4 -.3 .6 -.3h.7c.6 0 1 -.7 .6 -1.2l-.4 -.5c-.2 -.2 -.2 -.5 -.1 -.7l.2 -.6c.2 -.6 -.4 -1.2 -1 -1l-.6 .3c-.2 .1 -.5 0 -.7 -.1l-.5 -.4c-.5 -.4 -1.2 0 -1.2 .6Z" class="gc_9"/>
<path d="M430.1 213.2c.3 1.2 2.1 1.8 4 1.3c2 -.5 3.4 -1.8 3.2 -3c-.2 -1.2 -2 -1.8 -4 -1.3c-2 .5 -3.4 1.8 -3.2 3Z" class="g1_9"/>
<path d="M453.3 197.2c-1 -9.3 5.7 -17.7 15.1 -18.8c9.3 -1 17.7 5.6 18.8 14.9l.5 11.2l-32.3 3.7l-2.1 -11Z" class="ga_9"/>
<path d="M454.7 208.8c.4 3 7.7 .6 17 -.4c9.2 -1.1 16.9 -.5 16.6 -3.4c-.4 -2.9 -8.4 -6.8 -17.7 -5.7c-9.2 1 -16.2 6.6 -15.9 9.5Z" class="gb_9"/>
<path d="M477 200.8l.3 .6c.1 .2 .3 .4 .5 .4l.7 .1c.6 .1 .8 .9 .4 1.3l-.5 .4c-.2 .2 -.3 .4 -.2 .7l.1 .6c.1 .6 -.6 1.1 -1.1 .8l-.6 -.3c-.2 -.1 -.5 -.1 -.7 0l-.6 .3c-.6 .3 -1.2 -.2 -1.1 -.8l.1 -.7c.1 -.2 0 -.4 -.2 -.6l-.4 -.5c-.5 -.4 -.2 -1.2 .4 -1.2l.7 -.1c.2 -.1 .4 -.2 .5 -.4l.3 -.6c.3 -.6 1.1 -.5 1.4 0Z" class="gc_9"/>
<path d="M470.9 203.3c.4 1.2 -1 2.5 -3 3c-1.9 .5 -3.8 -.1 -4.2 -1.2c-.3 -1.2 1 -2.5 3 -3c2 -.5 3.9 .1 4.2 1.2Z" class="g1_9"/>
<path d="M491.9 213.7l-.8 3.4c-.3 1.3 -1.2 2.3 -2.4 2.8l-3.3 1.3c-3.1 1.2 -3.4 5.4 -.6 7.1l3.1 1.8c1.1 .6 1.8 1.8 1.9 3.1l.2 3.5c.3 3.2 4.2 4.8 6.7 2.6l2.6 -2.3c1 -.8 2.4 -1.1 3.6 -.8l3.4 .8c3.3 .8 6 -2.4 4.7 -5.4l-1.4 -3.2c-.5 -1.2 -.4 -2.5 .3 -3.6l1.9 -3c1.7 -2.8 -.5 -6.3 -3.8 -6l-3.5 .3c-1.3 .1 -2.6 -.4 -3.4 -1.4L498.8 212c-2.1 -2.5 -6.2 -1.5 -6.9 1.7Z" class="ga_9"/>
<path d="M409.7 233.6l-.8 3.4c-.3 1.2 -1.2 2.3 -2.4 2.8l-3.3 1.3c-3 1.2 -3.4 5.4 -.5 7.1l3 1.7c1.1 .7 1.9 1.9 2 3.2l.2 3.4c.2 3.3 4.1 4.9 6.6 2.7l2.7 -2.3c.9 -.8 2.3 -1.2 3.6 -.9l3.4 .9c3.2 .8 5.9 -2.4 4.6 -5.4l-1.4 -3.2c-.5 -1.2 -.4 -2.6 .3 -3.7l1.9 -2.9c1.8 -2.8 -.4 -6.4 -3.7 -6.1l-3.5 .4c-1.4 .1 -2.6 -.4 -3.5 -1.4l-2.2 -2.7c-2.1 -2.5 -6.3 -1.5 -7 1.7Z" class="ga_9"/>
<path d="M456 217.9c.2 .6 .8 1 1.5 .8c.6 -.1 1 -.7 .8 -1.4c-.1 -.6 -.8 -1 -1.4 -.9c-.6 .2 -1 .8 -.9 1.5Z" class="gd_9"/>
<path d="M448.2 219.8c.1 .6 .8 1 1.4 .8c.6 -.1 1 -.7 .9 -1.4c-.2 -.6 -.8 -1 -1.5 -.9c-.6 .2 -1 .8 -.8 1.5Z" class="gd_9"/>
<path d="M440.2 225.6c.7 2.7 8.6 9.4 16 7.6c7.3 -1.8 11.3 -11.3 10.7 -14c-.7 -2.7 -6.1 .9 -13.5 2.7c-7.3 1.8 -13.8 1 -13.2 3.7Z" class="ge_9"/>
<path d="M454.4 225.9c-3.7 .9 -7.2 -.2 -7.7 -2.4c0 -.2 -.1 -.3 -.1 -.4c2.1 -.3 4.4 -.6 6.8 -1.2c2.5 -.6 4.7 -1.4 6.6 -2.1c.1 .2 .1 .3 .1 .4c.6 2.2 -2 4.8 -5.7 5.7Z" class="g1_9"/>
<path d="M396.5 220.6c-3 -12.6 4.7 -25.2 17.3 -28.3c12.5 -3 25.2 4.7 28.3 17.3c3 12.6 -4.7 25.2 -17.3 28.3c-12.6 3 -25.3 -4.7 -28.3 -17.3m62.6 -15.1c-3 -12.6 4.7 -25.3 17.3 -28.3c12.5 -3.1 25.2 4.7 28.3 17.2c3 12.6 -4.7 25.3 -17.3 28.3c-12.6 3.1 -25.3 -4.7 -28.3 -17.2m-65.5 15.8c3.5 14.2 17.8 22.9 31.9 19.5c13.2 -3.2 21.7 -16 20 -29.2L457 208.8c4.5 12.6 17.8 20 31.1 16.8c14.1 -3.4 22.9 -17.7 19.4 -31.8c-3.4 -14.2 -17.7 -22.9 -31.8 -19.5c-14.1 3.4 -22.8 17.6 -19.5 31.7l-11.3 2.7c-3.5 -14 -17.7 -22.7 -31.8 -19.3c-14.2 3.5 -22.9 17.8 -19.5 31.9Z" class="gf_9"/>
<path d="M519.4 241.6c-1.5 10.9 -10.6 19.7 -20.6 23.6c7.9 -7.1 15.5 -14.2 20.6 -23.6Z" class="g5_9"/>
<path d="M700 510.2H253V449H678.2c12 0 21.8 9.7 21.8 21.7Z" class="gg_9"/>
<path d="M791.9 534.8v0c0 -42.2 -34.2 -76.4 -76.4 -76.4H214c-34.1 0 -61.8 25.6 -61.8 57.1v38.6c0 31.5 27.7 57 61.8 57H715.5c42.2 0 76.4 -34.2 76.4 -76.3Z" class="g1_9"/>
<path d="M223.6 406.3H148.5c-9 0 -17 3.6 -22.9 9.4c-5.8 5.8 -9.4 13.9 -9.4 22.8v97.7c0 -14.3 11.6 -26 26 -26h81.4c28.8 0 52 -23.2 52 -52c0 -28.7 -23.2 -51.9 -52 -51.9Z" class="gh_9"/>
<path d="M142.2 510.2h81.4c14.7 0 28 -6.1 37.4 -15.9H148.5c-9 0 -17 3.6 -22.9 9.5c-5.8 5.8 -9.4 13.9 -9.4 22.8v9.6c0 -14.3 11.6 -26 26 -26Z" class="gg_9"/>
<path d="M700 966.3H253V905.1H678.2c12 0 21.8 9.7 21.8 21.7Z" class="gi_9"/>
<path d="M791.9 990.8v0c0 -42.1 -34.2 -76.3 -76.4 -76.3H214c-34.1 0 -61.8 25.5 -61.8 57v38.7c0 31.4 27.7 57 61.8 57H715.5c42.2 0 76.4 -34.2 76.4 -76.4Z" class="g1_9"/>
<path d="M223.6 862.3H148.5c-9 0 -17 3.6 -22.9 9.5c-5.8 5.8 -9.4 13.9 -9.4 22.8v97.7c0 -14.4 11.6 -26 26 -26h81.4c28.8 0 52 -23.3 52 -52c0 -28.7 -23.2 -52 -52 -52Z" class="gj_9"/>
<path d="M142.2 966.3h81.4c14.7 0 28 -6.1 37.4 -15.9H148.5c-9 0 -17 3.6 -22.9 9.4c-5.8 5.9 -9.4 14 -9.4 22.9v9.6c0 -14.4 11.6 -26 26 -26Z" class="gi_9"/>
<path d="M208.1 738.4H655V677.1H229.8c-12 0 -21.7 9.8 -21.7 21.8Z" class="gk_9"/>
<path d="M116.2 762.9v0c0 -42.1 34.2 -76.3 76.3 -76.3H694c34.1 0 61.8 25.5 61.8 57v38.6c0 31.5 -27.7 57.1 -61.8 57.1H192.5c-42.1 0 -76.3 -34.2 -76.3 -76.4Z" class="g1_9"/>
<path d="M684.4 634.4h75.2c8.9 0 17 3.6 22.8 9.4c5.8 5.9 9.5 14 9.5 22.9v97.7c0 -14.4 -11.7 -26 -26 -26H684.4c-28.7 0 -52 -23.3 -52 -52c0 -28.7 23.3 -52 52 -52Z" class="gl_9"/>
<path d="M765.9 738.4H684.4c-14.7 0 -28 -6.1 -37.4 -15.9H759.6c8.9 0 17 3.6 22.8 9.4c5.8 5.9 9.5 13.9 9.5 22.8v9.7c0 -14.4 -11.7 -26 -26 -26Z" class="gk_9"/>
</svg>