<?xml version="1.0" encoding="UTF-8" standalone="no"?>
<!DOCTYPE svg PUBLIC "-//W3C//DTD SVG 1.1//EN"
"http://www.w3.org/Graphics/SVG/1.1/DTD/svg11.dtd">
<svg viewBox="0 0 909 1286" version="1.1" xmlns="http://www.w3.org/2000/svg" xmlns:xlink="http://www.w3.org/1999/xlink">
<defs>
<clipPath id="c0_4"><path d="M-.2 1286.5V-.2h910V1286.5Z"/></clipPath>
<clipPath id="c1_4"><path d="M782.3 962.3L748.5 947.9c4 -8.4 28.1 -16.2 28.1 -16.2c0 0 9.7 22.2 5.7 30.6Z"/></clipPath>
<clipPath id="c2_4"><path d="M671.2 963.9c-4.1 -8 2 -31 2 -31c0 0 20.6 5.5 24.7 13.5l-26.7 17.5Z"/></clipPath>
<clipPath id="c3_4"><path d="M719.3 1055.6c-41.8 0 -64.5 -15.7 -64.5 -51.7c0 -36.1 33.9 -68.8 75.8 -68.8c41.8 0 75.7 32.7 75.7 68.8c0 36 -45.2 51.7 -87 51.7Z"/></clipPath>
<clipPath id="c4_4"><path d="M734.4 1033c-8.6 0 -15.4 -5.6 -16.6 -13.6c-1.3 -9.3 6.5 -17.2 17.1 -18.8c1 -.1 1.9 -.1 2.8 -.1c9.5 0 17.3 6.7 17.3 6.7c0 0 3.2 21.4 -16.3 25.4c-1.5 .3 -2.9 .4 -4.3 .4Z"/></clipPath>
<clipPath id="c5_4"><path d="M677 1032.4c-1.1 0 -2.3 -.2 -3.6 -.4c-16.7 -3.8 -13.9 -24.3 -13.9 -24.3c0 0 6.7 -6.5 14.8 -6.5c.8 0 1.5 .1 2.3 .2c9.2 1.5 15.8 9.1 14.7 18c-1 7.6 -6.9 13 -14.3 13Z"/></clipPath>
<clipPath id="c6_4"><path d="M406.5 244.1V214.4h29.7v29.7Z"/></clipPath>
<clipPath id="c7_4"><path d="M473.2 244.1V214.4h29.7v29.7Z"/></clipPath>
<clipPath id="c8_4"><path d="M439.9 244.1V214.4h29.7v29.7Z"/></clipPath>
<clipPath id="c9_4"><path d="M406.5 600.6V570.9h29.7v29.7Z"/></clipPath>
<clipPath id="ca_4"><path d="M473.2 600.6V570.9h29.7v29.7Z"/></clipPath>
<clipPath id="cb_4"><path d="M439.9 600.6V570.9h29.7v29.7Z"/></clipPath>
<clipPath id="cc_4"><path d="M406.5 947.1V917.4h29.7v29.7Z"/></clipPath>
<clipPath id="cd_4"><path d="M473.2 947.1V917.4h29.7v29.7Z"/></clipPath>
<clipPath id="ce_4"><path d="M439.9 947.1V917.4h29.7v29.7Z"/></clipPath>
<clipPath id="cf_4"><path d="M676.9 537.5V490.2h47.3v47.3Z"/></clipPath>
<clipPath id="cg_4"><path d="M186.4 884.8V836.1h48.7v48.7Z"/></clipPath>
<style type="text/css"><![CDATA[
.g0_4{
fill: #F8CCCC;
}
.g1_4{
fill: #FFF;
}
.g2_4{
fill: none;
stroke: #1A9479;
stroke-width: 24.444;
stroke-miterlimit: 10;
}
.g3_4{
fill: none;
stroke: #FFF;
stroke-width: 1.527;
stroke-miterlimit: 10;
}
.g4_4{
fill: #1A9479;
}
.g5_4{
fill: #B098C7;
}
.g6_4{
fill: #C5B3D3;
}
.g7_4{
fill: #EEDFED;
}
.g8_4{
fill: #FCF6E6;
}
.g9_4{
fill: #F4CCDD;
}
.ga_4{
fill: #382E2E;
}
.gb_4{
fill: #3D569D;
}
.gc_4{
fill: #29347B;
}
.gd_4{
fill: #080605;
}
.ge_4{
fill: #F15D5A;
}
.gf_4{
fill: #F0ED99;
}
.gg_4{
fill: #F7E471;
}
.gh_4{
fill: none;
stroke: #F16248;
stroke-width: 1.527;
stroke-miterlimit: 10;
}
.gi_4{
fill: #F16248;
}
.gj_4{
fill: #A7DCDF;
}
.gk_4{
fill: #B2E2F6;
}
.gl_4{
fill: #C3E3CB;
}
.gm_4{
fill: #C1CEC6;
}
.gn_4{
fill: #F9B893;
}
.go_4{
fill: #E3EBA1;
}
.gp_4{
fill: #D2B2D4;
}
]]></style>
</defs>
<path d="M0 1286.2H909.4V0H0V1286.2Z" class="g0_4"/>
<path d="M870.9 1208.3V78c-21.6 0 -39 -17.5 -39 -39H78.3c0 21.5 -17.4 39 -38.9 39V1208.3c21.5 0 38.9 17.4 38.9 38.9H831.9c0 -21.5 17.4 -38.9 39 -38.9Z" class="g1_4"/>
<path d="M870.9 1208.3V78c-21.6 0 -39 -17.5 -39 -39H78.3c0 21.5 -17.4 39 -38.9 39V1208.3c21.5 0 38.9 17.4 38.9 38.9H831.9c0 -21.5 17.4 -38.9 39 -38.9Zm-.4 0V78c-21.6 0 -39 -17.5 -39 -39H78C78 60.5 60.5 78 39 78V1208.3c21.5 0 39 17.4 39 38.9H831.5c0 -21.5 17.4 -38.9 39 -38.9Z" class="g2_4"/>
<path d="M870.5 1208.3V78c-21.6 0 -39 -17.5 -39 -39H78C78 60.5 60.5 78 39 78V1208.3c21.5 0 39 17.4 39 38.9H831.5c0 -21.5 17.4 -38.9 39 -38.9Z" class="g3_4"/>
<path d="M882.1 39c0 6.4 -5.2 11.6 -11.6 11.6c-6.4 0 -11.6 -5.2 -11.6 -11.6c0 -6.4 5.2 -11.6 11.6 -11.6c6.4 0 11.6 5.2 11.6 11.6Z" class="g4_4"/>
<path d="M50.6 39c0 6.4 -5.2 11.6 -11.6 11.6C32.6 50.6 27.4 45.4 27.4 39C27.4 32.6 32.6 27.4 39 27.4c6.4 0 11.6 5.2 11.6 11.6Z" class="g4_4"/>
<path d="M882.1 1247.2c0 6.5 -5.2 11.7 -11.6 11.7c-6.4 0 -11.6 -5.2 -11.6 -11.7c0 -6.4 5.2 -11.6 11.6 -11.6c6.4 0 11.6 5.2 11.6 11.6Z" class="g4_4"/>
<path d="M50.6 1247.2c0 6.5 -5.2 11.7 -11.6 11.7c-6.4 0 -11.6 -5.2 -11.6 -11.7c0 -6.4 5.2 -11.6 11.6 -11.6c6.4 0 11.6 5.2 11.6 11.6Z" class="g4_4"/>
<path d="M791.8 1069.6c-4.3 11.3 -11.7 18 -18 22c-9.9 6.2 -19.6 7.1 -20 7.1c-3.6 .3 -6.7 -2.4 -7 -6c-.3 -3.5 2.4 -6.6 5.9 -6.9c1.3 -.1 28.1 -2.9 29.8 -34.8c.2 -3.6 3.2 -6.4 6.8 -6.2c3.5 .2 6.3 3.3 6.1 6.8c-.4 7 -1.7 13 -3.6 18Z" class="g5_4"/>
<path d="M712.3 1057.4c-.9 -1.6 -2.4 -2.7 -4.2 -3c-6.1 -1.1 -24.7 -4.6 -34.3 -8.4c-11.7 -4.6 -17.5 9.2 -3.4 17c14.2 7.8 39.5 7.1 42.5 -3.4c0 -.3 0 -1.1 -.6 -2.2Z" class="g5_4"/>
<path d="M719 1095.6c-4.5 -4.7 -12 -4.2 -15.9 1c-3.5 4.7 -8.2 14.8 -11.3 16.2c-6.4 2.9 -6.8 8.1 6.2 14.7c13.3 6.6 15 -5 15 -5l6.7 -13.4c3.2 -4.1 2.8 -9.8 -.7 -13.5Z" class="g5_4"/>
<path d="M761 1077.8c0 20 -14.5 30.8 -32.4 30.8c-17.9 0 -32.5 -10.8 -32.5 -30.8c0 -20 14.6 -41.5 32.5 -41.5c17.9 0 32.4 21.5 32.4 41.5Z" class="g6_4"/>
<path d="M744.9 1096.1c-5.1 -4.6 -13.1 -3.5 -16.8 2.3c-3.4 5.3 -6.1 17 -9.2 18.7c-6.6 3.6 -6.6 9.2 7.7 15.1c14.5 6.1 15.5 -6.3 15.5 -6.3l4.6 -15.5c3 -4.6 2.2 -10.6 -1.8 -14.3Z" class="g6_4"/>
<path d="M739 1085.4c0 11.9 -8.7 18.4 -19.4 18.4c-10.7 0 -17.7 -6.6 -19.3 -18.4c-1.6 -11.8 5.3 -24.8 15.9 -24.8c10.7 0 22.8 12.9 22.8 24.8Z" class="g8_4"/>
<g clip-path="url(#c0_4)" style="mix-blend-mode: multiply;">
<path d="M699.9 1059.7c4.1 1.6 9.4 2.5 16.1 2.5c13.6 0 29.4 -3.9 37.6 -9.6c-6 -9.5 -15 -16.3 -25 -16.3c-12.4 0 -23.2 10.4 -28.7 23.4Z" class="g7_4"/>
</g>
<path d="M788.3 966.4c5.6 -11.9 -8.1 -43.3 -8.1 -43.3c0 0 -33.9 11.1 -39.5 23Z" class="g6_4"/>
<path d="M782.3 962.3c4 -8.4 -5.7 -30.6 -5.7 -30.6c0 0 -24.1 7.8 -28.1 16.2Z" class="g9_4"/>
<g clip-path="url(#c1_4)">
<path d="M760.6 950.5l11.4 5.7l4.9 -8.8c1.5 -2.7 .4 -6.2 -2.5 -7.6l-.8 -.4c-3 -1.5 -6.6 -.4 -8.1 2.4Z" class="g8_4"/>
<path d="M770.3 955.6c.4 3.9 4.1 6.8 8.2 6.4c4.1 -.4 7.2 -3.9 6.7 -7.8c-.4 -3.9 -4.1 -6.8 -8.2 -6.4c-4.1 .4 -7.1 3.9 -6.7 7.8Z" class="g8_4"/>
<path d="M751.2 945.9c.4 3.9 4.1 6.7 8.3 6.3c4.1 -.4 7.1 -3.9 6.7 -7.8c-.4 -3.9 -4.1 -6.7 -8.3 -6.3c-4.1 .4 -7.1 3.8 -6.7 7.8Z" class="g8_4"/>
</g>
<path d="M666.6 968.5c-5.8 -11.3 2.8 -43.8 2.8 -43.8c0 0 29.1 7.8 34.8 19.1Z" class="g6_4"/>
<path d="M671.2 963.9c-4.1 -8 2 -31 2 -31c0 0 20.6 5.5 24.7 13.5Z" class="g9_4"/>
<g clip-path="url(#c2_4)">
<path d="M688.1 950.1l-9 6.7l-4.8 -8.2c-1.5 -2.6 -.9 -6.2 1.4 -7.9l.7 -.5c2.3 -1.7 5.4 -1 6.9 1.7Z" class="g8_4"/>
<path d="M680.5 956.1c0 3.9 -2.8 7.1 -6.2 7.1c-3.5 0 -6.3 -3.2 -6.3 -7.1c0 -3.9 2.8 -7.1 6.3 -7.1c3.4 0 6.2 3.2 6.2 7.1Z" class="g8_4"/>
<path d="M695.5 944.6c0 3.9 -2.8 7.1 -6.3 7.1c-3.5 0 -6.3 -3.2 -6.3 -7.1c0 -3.9 2.8 -7.1 6.3 -7.1c3.5 0 6.3 3.2 6.3 7.1Z" class="g8_4"/>
</g>
<path d="M806.3 1003.9c0 36 -45.2 51.7 -87 51.7c-41.8 0 -64.5 -15.7 -64.5 -51.7c0 -36.1 33.9 -68.8 75.8 -68.8c41.8 0 75.7 32.7 75.7 68.8Z" class="g6_4"/>
<path clip-path="url(#c3_4)" d="M781.3 1056.2c0 30.8 -28.1 55.8 -62.9 55.8c-34.8 0 -63 -25 -63 -55.8c0 -30.8 46.1 -55.8 46.1 -55.8c0 0 79.8 25 79.8 55.8Z" class="g8_4"/>
<g clip-path="url(#c3_4)" style="mix-blend-mode: multiply;">
<image x="658" y="1017" width="27" height="28" xlink:href="shade/1.png"/>
</g>
<g clip-path="url(#c3_4)" style="mix-blend-mode: multiply;">
<image x="729" y="1017" width="29" height="28" xlink:href="shade/2.png"/>
</g>
<path d="M717.8 1018c1.3 9.8 10.7 17.5 20.9 14.1c17.7 -6 16.3 -26.7 16.3 -26.7c0 0 -9.5 -10.1 -20.2 -8.5c-10.6 1.5 -18.4 11.4 -17 21.1Z" class="ga_4"/>
<path d="M717.8 1019.4c1.3 9.3 10.3 15.3 20.9 13.2c19.5 -4 16.3 -25.4 16.3 -25.4c0 0 -9.4 -8.1 -20.1 -6.6c-10.6 1.6 -18.4 9.5 -17.1 18.8Z" class="g1_4"/>
<g clip-path="url(#c4_4)">
<path d="M716.4 1016.7c.5 8.5 7.8 15 16.3 14.5c8.5 -.5 14.9 -7.8 14.4 -16.3c-.5 -8.5 -7.7 -15 -16.2 -14.5c-8.5 .5 -15 7.8 -14.5 16.3Z" class="gb_4"/>
<path d="M729.2 1006.6l-1.2 2.2c-.4 .9 -1.2 1.5 -2.1 1.6l-2.5 .4c-2.4 .3 -3.4 3.2 -1.6 4.8l1.8 1.8c.7 .6 1 1.6 .8 2.5l-.4 2.5c-.4 2.3 2.1 4.1 4.2 3l2.2 -1.2c.9 -.4 1.9 -.4 2.7 0l2.3 1.2c2.1 1.1 4.6 -.7 4.2 -3l-.5 -2.5c-.1 -.9 .2 -1.8 .8 -2.5l1.9 -1.7c1.7 -1.7 .7 -4.6 -1.6 -4.9l-2.6 -.4c-.9 -.1 -1.7 -.7 -2.1 -1.5l-1.2 -2.3c-1 -2.1 -4.1 -2.1 -5.1 0Z" class="gc_4"/>
<path d="M720.6 1008.2c.2 2.5 2.2 4.4 4.7 4.3c2.4 -.2 4.2 -2.3 4.1 -4.8c-.2 -2.5 -2.2 -4.4 -4.7 -4.3c-2.4 .2 -4.2 2.3 -4.1 4.8Z" class="g1_4"/>
</g>
<path d="M748.7 1002c1.6 -2.9 5.9 -3.6 5.9 -3.6c0 0 1.7 4.1 .1 7Z" class="ga_4"/>
<path d="M691.3 1018.1c-1.1 9.3 -9.2 16.7 -17.9 13.4c-15.2 -5.7 -14 -25.5 -14 -25.5c0 0 8.2 -9.6 17.3 -8.2c9.1 1.5 15.8 10.9 14.6 20.3Z" class="ga_4"/>
<path d="M691.3 1019.4c-1.2 8.8 -8.8 14.6 -17.9 12.6c-16.7 -3.8 -13.9 -24.3 -13.9 -24.3c0 0 8 -7.7 17.1 -6.3c9.2 1.5 15.8 9.1 14.7 18Z" class="g1_4"/>
<g clip-path="url(#c5_4)">
<path d="M692.5 1016.8c-.4 8.1 -6.7 14.3 -13.9 13.8c-7.3 -.5 -12.8 -7.4 -12.4 -15.5c.4 -8.2 6.6 -14.4 13.9 -13.9c7.3 .5 12.8 7.5 12.4 15.6Z" class="gb_4"/>
<path d="M681.6 1007.1l.9 2.2c.4 .8 1.1 1.3 1.9 1.5l2.1 .3c2.1 .3 2.9 3.1 1.4 4.7l-1.6 1.6c-.5 .7 -.8 1.6 -.7 2.5l.4 2.3c.3 2.3 -1.8 4 -3.6 2.9l-1.9 -1.1c-.7 -.4 -1.6 -.4 -2.3 0l-1.9 1.1c-1.9 1.1 -4 -.6 -3.6 -2.9l.4 -2.3c.1 -.9 -.2 -1.8 -.8 -2.4l-1.5 -1.7c-1.5 -1.6 -.7 -4.3 1.4 -4.7l2.1 -.3c.8 -.2 1.5 -.7 1.9 -1.5l.9 -2.2c.9 -2 3.6 -2 4.5 0Z" class="gc_4"/>
<path d="M674.4 1008.6c-.1 2.4 -1.9 4.3 -4 4.1c-2.1 -.1 -3.6 -2.1 -3.5 -4.5c.1 -2.4 1.9 -4.3 4 -4.1c2 .1 3.6 2.2 3.5 4.5Z" class="g1_4"/>
</g>
<path d="M664.9 1002.8c-1.4 -2.8 -5.1 -3.5 -5.1 -3.5c0 0 -1.5 3.9 -.1 6.7Z" class="ga_4"/>
<path d="M695.4 1024.1c0 -1.7 3.4 -2.3 5.6 -2.3c2.1 0 5.8 .5 5.7 2.3c0 .9 -3.2 3.7 -5.6 3.7c-2.3 0 -5.7 -2.5 -5.7 -3.7Z" class="gd_4"/>
<path d="M708.7 1032.2c1.9 0 3.3 1.7 2.9 3.5c-1 4.1 -3.5 7.1 -6.5 7.1c-3.1 0 -5.8 -3.2 -6.6 -7.5c-.4 -1.6 .9 -3.1 2.5 -3.1Z" class="ge_4"/>
<path d="M739.9 924.2l-.1 -16.4c0 -1.1 -1.3 -1.7 -2.1 -1l-5.5 4.1l-3.9 -6.7c-.5 -.9 -1.8 -.9 -2.3 0l-3.9 6.7l-5.6 -4.1c-.9 -.7 -2.1 -.1 -2.1 1l-.1 16.5c3 1 7.4 2 12.8 2c5.4 -.1 9.8 -1.1 12.8 -2.1Z" class="gf_4"/>
<path d="M722 924.4c0 3.4 -2.7 6.2 -6.1 6.2c-3.4 0 -6.2 -2.8 -6.2 -6.2c0 -3.4 2.8 -6.1 6.2 -6.1c3.4 0 6.1 2.7 6.1 6.1Z" class="g1_4"/>
<path d="M744.5 924.4c0 3.4 -2.8 6.2 -6.2 6.2c-3.4 0 -6.1 -2.8 -6.1 -6.2c0 -3.4 2.7 -6.1 6.1 -6.1c3.4 0 6.2 2.7 6.2 6.1Z" class="g1_4"/>
<path d="M733.4 926.3c0 3.4 -2.8 6.2 -6.2 6.2c-3.4 0 -6.1 -2.8 -6.1 -6.2c0 -3.4 2.7 -6.1 6.1 -6.1c3.4 0 6.2 2.7 6.2 6.1Z" class="g1_4"/>
<path d="M718.1 1077.1v0c-1 .8 -2.5 .6 -3.3 -.5l-20.5 -27c-.7 -1 -.5 -2.5 .5 -3.2c1 -.8 2.5 -.6 3.3 .4l20.4 27c.8 1 .6 2.5 -.4 3.3Z" class="gg_4"/>
<path d="M705.7 1045.5l-2 -2c-.8 -.8 -1.1 -1.9 -.9 -3l.5 -2.8c.5 -2.7 -2.3 -4.7 -4.7 -3.5l-2.6 1.4c-1 .5 -2.1 .5 -3 0l-2.6 -1.4c-2.3 -1.3 -5.2 .8 -4.7 3.5l.4 2.8c.2 1.1 -.2 2.2 -.9 2.9l-2.1 2.1c-2 1.9 -.9 5.2 1.7 5.6l2.9 .4c1 .1 1.9 .8 2.4 1.8l1.3 2.6c1.1 2.4 4.6 2.4 5.8 0l1.3 -2.6c.5 -1 1.4 -1.6 2.5 -1.8l2.8 -.4c2.7 -.4 3.8 -3.7 1.9 -5.6Z" class="gg_4"/>
<path d="M758.4 1054.2c-1.7 -1 -3.7 -1.1 -5.6 -.4c-6.3 2.3 -25.9 9.2 -37.1 10.9c-13.6 2.1 -11.5 18.4 6.2 17.9c17.7 -.4 41.2 -15 38.4 -26.5c-.2 -.4 -.7 -1.2 -1.9 -1.9Z" class="g6_4"/>
<image preserveAspectRatio="none" x="379" y="1172" width="151" height="37" xlink:href="img/1.png"/>
<path d="M790.5 431.2H608.3c-5.5 0 -9.9 -4.5 -9.9 -10V167.3c0 -5.5 4.4 -9.9 9.9 -9.9H790.5c5.5 0 10 4.4 10 9.9V421.2c0 5.5 -4.5 10 -10 10Z" class="gh_4"/>
<path d="M744.1 157.4c0 -24.7 -20 -44.6 -44.7 -44.6c-24.6 0 -44.6 19.9 -44.6 44.6c0 24.6 20 44.6 44.6 44.6c24.7 0 44.7 -20 44.7 -44.6Z" class="gi_4"/>
<path d="M732.4 157.4c0 -18.2 -14.8 -32.9 -33 -32.9c-18.1 0 -32.9 14.7 -32.9 32.9c0 18.2 14.8 32.9 32.9 32.9c18.2 0 33 -14.7 33 -32.9Z" class="gj_4"/>
<image preserveAspectRatio="none" x="677" y="138" width="45" height="45" xlink:href="img/2.png"/>
<path d="M301.9 431.2H119.7c-5.5 0 -10 -4.5 -10 -10V167.3c0 -5.5 4.5 -9.9 10 -9.9H301.9c5.5 0 9.9 4.4 9.9 9.9V421.2c0 5.5 -4.4 10 -9.9 10Z" class="gh_4"/>
<path d="M255.4 157.4c0 -24.7 -20 -44.6 -44.6 -44.6c-24.7 0 -44.6 19.9 -44.6 44.6c0 24.6 19.9 44.6 44.6 44.6c24.6 0 44.6 -20 44.6 -44.6Z" class="gi_4"/>
<path d="M243.7 157.4c0 -18.2 -14.7 -32.9 -32.9 -32.9c-18.2 0 -32.9 14.7 -32.9 32.9c0 18.2 14.7 32.9 32.9 32.9c18.2 0 32.9 -14.7 32.9 -32.9Z" class="gk_4"/>
<path d="M546.2 431.2H364c-5.5 0 -9.9 -4.5 -9.9 -10V167.3c0 -5.5 4.4 -9.9 9.9 -9.9H546.2c5.5 0 10 4.4 10 9.9V421.2c0 5.5 -4.5 10 -10 10Z" class="gh_4"/>
<path d="M502.5 157.4c0 -24.7 -20 -44.6 -44.6 -44.6c-24.7 0 -44.7 19.9 -44.7 44.6c0 24.6 20 44.6 44.7 44.6c24.6 0 44.6 -20 44.6 -44.6Z" class="gi_4"/>
<path d="M490.8 157.4c0 -18.2 -14.8 -32.9 -32.9 -32.9c-18.2 0 -32.9 14.7 -32.9 32.9c0 18.2 14.7 32.9 32.9 32.9c18.1 0 32.9 -14.7 32.9 -32.9Z" class="gl_4"/>


<path d="M790.5 787.6H608.3c-5.5 0 -9.9 -4.4 -9.9 -9.9V523.8c0 -5.5 4.4 -10 9.9 -10H790.5c5.5 0 10 4.5 10 10V777.7c0 5.5 -4.5 9.9 -10 9.9Z" class="gh_4"/>
<path d="M744.1 513.8c0 -24.6 -20 -44.6 -44.7 -44.6c-24.6 0 -44.6 20 -44.6 44.6c0 24.7 20 44.7 44.6 44.7c24.7 0 44.7 -20 44.7 -44.7Z" class="gi_4"/>
<path d="M732.4 513.8c0 -18.1 -14.8 -32.9 -33 -32.9c-18.1 0 -32.9 14.8 -32.9 32.9c0 18.2 14.8 33 32.9 33c18.2 0 33 -14.8 33 -33Z" class="gj_4"/>
<path d="M301.9 787.6H119.7c-5.5 0 -10 -4.4 -10 -9.9V523.8c0 -5.5 4.5 -10 10 -10H301.9c5.5 0 9.9 4.5 9.9 10V777.7c0 5.5 -4.4 9.9 -9.9 9.9Z" class="gh_4"/>
<path d="M255.4 513.8c0 -24.6 -20 -44.6 -44.6 -44.6c-24.7 0 -44.6 20 -44.6 44.6c0 24.7 19.9 44.7 44.6 44.7c24.6 0 44.6 -20 44.6 -44.7Z" class="gi_4"/>
<path d="M243.7 513.8c0 -18.1 -14.7 -32.9 -32.9 -32.9c-18.2 0 -32.9 14.8 -32.9 32.9c0 18.2 14.7 33 32.9 33c18.2 0 32.9 -14.8 32.9 -33Z" class="gm_4"/>
<path d="M546.2 787.6H364c-5.5 0 -9.9 -4.4 -9.9 -9.9V523.8c0 -5.5 4.4 -10 9.9 -10H546.2c5.5 0 10 4.5 10 10V777.7c0 5.5 -4.5 9.9 -10 9.9Z" class="gh_4"/>
<path d="M502.5 513.8c0 -24.6 -20 -44.6 -44.6 -44.6c-24.7 0 -44.7 20 -44.7 44.6c0 24.7 20 44.7 44.7 44.7c24.6 0 44.6 -20 44.6 -44.7Z" class="gi_4"/>
<path d="M490.8 513.8c0 -18.1 -14.8 -32.9 -32.9 -32.9c-18.2 0 -32.9 14.8 -32.9 32.9c0 18.2 14.7 33 32.9 33c18.1 0 32.9 -14.8 32.9 -33Z" class="gn_4"/>

<path d="M301.9 1134.2H119.7c-5.5 0 -10 -4.5 -10 -10V870.4c0 -5.5 4.5 -10 10 -10H301.9c5.5 0 9.9 4.5 9.9 10v253.8c0 5.5 -4.4 10 -9.9 10Z" class="gh_4"/>
<path d="M255.4 860.4c0 -24.6 -20 -44.6 -44.6 -44.6c-24.7 0 -44.6 20 -44.6 44.6c0 24.7 19.9 44.6 44.6 44.6c24.6 0 44.6 -19.9 44.6 -44.6Z" class="gi_4"/>
<path d="M243.7 860.4c0 -18.2 -14.7 -32.9 -32.9 -32.9c-18.2 0 -32.9 14.7 -32.9 32.9c0 18.2 14.7 32.9 32.9 32.9c18.2 0 32.9 -14.7 32.9 -32.9Z" class="go_4"/>
<path d="M546.2 1134.2H364c-5.5 0 -9.9 -4.5 -9.9 -10V870.4c0 -5.5 4.4 -10 9.9 -10H546.2c5.5 0 10 4.5 10 10v253.8c0 5.5 -4.5 10 -10 10Z" class="gh_4"/>
<path d="M502.5 860.4c0 -24.6 -20 -44.6 -44.6 -44.6c-24.7 0 -44.7 20 -44.7 44.6c0 24.7 20 44.6 44.7 44.6c24.6 0 44.6 -19.9 44.6 -44.6Z" class="gi_4"/>
<path d="M490.8 860.4c0 -18.2 -14.8 -32.9 -32.9 -32.9c-18.2 0 -32.9 14.7 -32.9 32.9c0 18.2 14.7 32.9 32.9 32.9c18.1 0 32.9 -14.7 32.9 -32.9Z" class="gp_4"/>


<image preserveAspectRatio="none" x="189" y="136" width="44" height="43" xlink:href="img/27.png"/>
<image preserveAspectRatio="none" x="433" y="129" width="50" height="50" xlink:href="img/28.png"/>
<image preserveAspectRatio="none" x="187" y="489" width="48" height="47" xlink:href="img/29.png"/>
<image preserveAspectRatio="none" x="437" y="492" width="42" height="42" xlink:href="img/30.png"/>
<image clip-path="url(#cf_4)" preserveAspectRatio="none" x="677" y="491" width="47" height="46" xlink:href="img/31.png"/>
<image clip-path="url(#cg_4)" preserveAspectRatio="none" x="187" y="836" width="48" height="48" xlink:href="img/32.png"/>
<image preserveAspectRatio="none" x="432" y="835" width="51" height="51" xlink:href="img/33.png"/>
</svg>