<?xml version="1.0" encoding="UTF-8" standalone="no"?>
<!DOCTYPE svg PUBLIC "-//W3C//DTD SVG 1.1//EN"
"http://www.w3.org/Graphics/SVG/1.1/DTD/svg11.dtd">
<svg viewBox="0 0 909 1286" version="1.1" xmlns="http://www.w3.org/2000/svg" xmlns:xlink="http://www.w3.org/1999/xlink">
<defs>
<clipPath id="c0_3"><path d="M620.7 639.5V537.2h48.2V639.5Z"/></clipPath>
<clipPath id="c1_3"><path d="M492.9 639.5V499.6H541V639.5Z"/></clipPath>
<clipPath id="c2_3"><path d="M173.3 643.1V472.8h48.2V643.1Z"/></clipPath>
<clipPath id="c3_3"><path d="M427.1 640.6V424.4h48.2V640.6Z"/></clipPath>
<clipPath id="c4_3"><path d="M237.2 643.1v-75h48.2v75Z"/></clipPath>
<clipPath id="c5_3"><path d="M406.5 905.3V875.6h29.7v29.7Z"/></clipPath>
<clipPath id="c6_3"><path d="M473.2 905.3V875.6h29.7v29.7Z"/></clipPath>
<clipPath id="c7_3"><path d="M439.9 905.3V875.6h29.7v29.7Z"/></clipPath>
<style type="text/css"><![CDATA[
.g0_3{
fill: #F8CCCC;
}
.g1_3{
fill: #FFF;
}
.g2_3{
fill: none;
stroke: #1A9479;
stroke-width: 24.444;
stroke-miterlimit: 10;
}
.g3_3{
fill: none;
stroke: #FFF;
stroke-width: 1.527;
stroke-miterlimit: 10;
}
.g4_3{
fill: #1A9479;
}
.g5_3{
fill: none;
stroke: #F16248;
stroke-width: 1.527;
stroke-miterlimit: 10;
}
.g6_3{
fill: #F16248;
}
.g7_3{
fill: #A7DCDF;
}
.g8_3{
fill: #F8ED99;
}
.g9_3{
fill: #F9B893;
}
]]></style>
</defs>
<path d="M0 1286.2H909.4V0H0V1286.2Z" class="g0_3"/>
<path d="M870.9 1208.3V78c-21.6 0 -39 -17.5 -39 -39H78.3c0 21.5 -17.4 39 -38.9 39V1208.3c21.5 0 38.9 17.4 38.9 38.9H831.9c0 -21.5 17.4 -38.9 39 -38.9Z" class="g1_3"/>
<path d="M870.9 1208.3V78c-21.6 0 -39 -17.5 -39 -39H78.3c0 21.5 -17.4 39 -38.9 39V1208.3c21.5 0 38.9 17.4 38.9 38.9H831.9c0 -21.5 17.4 -38.9 39 -38.9Zm-.4 0V78c-21.6 0 -39 -17.5 -39 -39H78C78 60.5 60.5 78 39 78V1208.3c21.5 0 39 17.4 39 38.9H831.5c0 -21.5 17.4 -38.9 39 -38.9Z" class="g2_3"/>
<path d="M870.5 1208.3V78c-21.6 0 -39 -17.5 -39 -39H78C78 60.5 60.5 78 39 78V1208.3c21.5 0 39 17.4 39 38.9H831.5c0 -21.5 17.4 -38.9 39 -38.9Z" class="g3_3"/>
<path d="M882.1 39c0 6.4 -5.2 11.6 -11.6 11.6c-6.4 0 -11.6 -5.2 -11.6 -11.6c0 -6.4 5.2 -11.6 11.6 -11.6c6.4 0 11.6 5.2 11.6 11.6Z" class="g4_3"/>
<path d="M50.6 39c0 6.4 -5.2 11.6 -11.6 11.6C32.6 50.6 27.4 45.4 27.4 39C27.4 32.6 32.6 27.4 39 27.4c6.4 0 11.6 5.2 11.6 11.6Z" class="g4_3"/>
<path d="M882.1 1247.2c0 6.5 -5.2 11.7 -11.6 11.7c-6.4 0 -11.6 -5.2 -11.6 -11.7c0 -6.4 5.2 -11.6 11.6 -11.6c6.4 0 11.6 5.2 11.6 11.6Z" class="g4_3"/>
<path d="M50.6 1247.2c0 6.5 -5.2 11.7 -11.6 11.7c-6.4 0 -11.6 -5.2 -11.6 -11.7c0 -6.4 5.2 -11.6 11.6 -11.6c6.4 0 11.6 5.2 11.6 11.6Z" class="g4_3"/>
<path d="M622.2 232.2H51.7V186.6H622.2c12.6 0 22.8 10.1 22.8 22.7v.2c0 12.5 -10.2 22.7 -22.8 22.7Z" class="g0_3"/>
<!--image preserveAspectRatio="none" x="749" y="442" width="47" height="197" xlink:href="img/1.png"/>
<image preserveAspectRatio="none" x="557" y="533" width="48" height="106" xlink:href="img/2.png"/>
<image clip-path="url(#c0_3)" preserveAspectRatio="none" x="621" y="538" width="48" height="101" xlink:href="img/3.png"/>
<image clip-path="url(#c1_3)" preserveAspectRatio="none" x="493" y="500" width="48" height="139" xlink:href="img/4.png"/>
<image preserveAspectRatio="none" x="365" y="538" width="48" height="101" xlink:href="img/5.png"/>
<image preserveAspectRatio="none" x="685" y="504" width="47" height="135" xlink:href="img/6.png"/>
<image preserveAspectRatio="none" x="301" y="471" width="48" height="168" xlink:href="img/7.png"/>
<image clip-path="url(#c2_3)" preserveAspectRatio="none" x="174" y="473" width="47" height="170" xlink:href="img/8.png"/>
<image preserveAspectRatio="none" x="110" y="546" width="47" height="95" xlink:href="img/9.png"/>
<image clip-path="url(#c3_3)" preserveAspectRatio="none" x="427" y="425" width="48" height="215" xlink:href="img/10.png"/>
<image clip-path="url(#c4_3)" preserveAspectRatio="none" x="238" y="568" width="47" height="75" xlink:href="img/11.png"/-->
<path d="M237.5 647.2h47.6v-8H237.5v8Z" class="g1_3"/>
<path d="M790.5 1092.4H608.3c-5.5 0 -9.9 -4.5 -9.9 -10V828.5c0 -5.4 4.4 -9.9 9.9 -9.9H790.5c5.5 0 10 4.5 10 9.9v253.9c0 5.5 -4.5 10 -10 10Z" class="g5_3"/>
<path d="M744.1 818.6C744.1 794 724.1 774 699.4 774c-24.6 0 -44.6 20 -44.6 44.6c0 24.6 20 44.6 44.6 44.6c24.7 0 44.7 -20 44.7 -44.6Z" class="g6_3"/>
<path d="M732.4 818.6c0 -18.2 -14.8 -32.9 -33 -32.9c-18.1 0 -32.9 14.7 -32.9 32.9c0 18.2 14.8 32.9 32.9 32.9c18.2 0 33 -14.7 33 -32.9Z" class="g7_3"/>
<image preserveAspectRatio="none" x="677" y="799" width="45" height="45" xlink:href="img/12.png"/>
<path d="M301.9 1092.4H119.7c-5.5 0 -10 -4.5 -10 -10V828.5c0 -5.4 4.5 -9.9 10 -9.9H301.9c5.5 0 9.9 4.5 9.9 9.9v253.9c0 5.5 -4.4 10 -9.9 10Z" class="g5_3"/>
<path d="M255.4 818.6C255.4 794 235.4 774 210.8 774c-24.7 0 -44.6 20 -44.6 44.6c0 24.6 19.9 44.6 44.6 44.6c24.6 0 44.6 -20 44.6 -44.6Z" class="g6_3"/>
<path d="M243.7 818.6c0 -18.2 -14.7 -32.9 -32.9 -32.9c-18.2 0 -32.9 14.7 -32.9 32.9c0 18.2 14.7 32.9 32.9 32.9c18.2 0 32.9 -14.7 32.9 -32.9Z" class="g8_3"/>
<image preserveAspectRatio="none" x="187" y="790" width="47" height="47" xlink:href="img/13.png"/>
<path d="M546.2 1092.4H364c-5.5 0 -9.9 -4.5 -9.9 -10V828.5c0 -5.4 4.4 -9.9 9.9 -9.9H546.2c5.5 0 10 4.5 10 9.9v253.9c0 5.5 -4.5 10 -10 10Z" class="g5_3"/>
<path d="M502.5 818.6C502.5 794 482.5 774 457.9 774c-24.7 0 -44.7 20 -44.7 44.6c0 24.6 20 44.6 44.7 44.6c24.6 0 44.6 -20 44.6 -44.6Z" class="g6_3"/>
<path d="M490.8 818.6c0 -18.2 -14.8 -32.9 -32.9 -32.9c-18.2 0 -32.9 14.7 -32.9 32.9c0 18.2 14.7 32.9 32.9 32.9c18.1 0 32.9 -14.7 32.9 -32.9Z" class="g9_3"/>
<image preserveAspectRatio="none" x="435" y="794" width="46" height="46" xlink:href="img/14.png"/>



<image preserveAspectRatio="none" x="379" y="1172" width="151" height="37" xlink:href="img/24.png"/>
</svg>