<?xml version="1.0" encoding="UTF-8" standalone="no"?>
<!DOCTYPE svg PUBLIC "-//W3C//DTD SVG 1.1//EN"
"http://www.w3.org/Graphics/SVG/1.1/DTD/svg11.dtd">
<svg viewBox="0 0 909 1286" version="1.1" xmlns="http://www.w3.org/2000/svg" xmlns:xlink="http://www.w3.org/1999/xlink">
<defs>
<clipPath id="c0_2"><path d="M-.2 1286.5V-.2h910V1286.5Z"/></clipPath>
<clipPath id="c1_2"><path d="M199.9 692.9V659.2h33.6v33.7Z"/></clipPath>
<style type="text/css"><![CDATA[
.g0_2{
fill: #F8CCCC;
}
.g1_2{
fill: #FFF;
}
.g2_2{
fill: none;
stroke: #1A9479;
stroke-width: 24.444;
stroke-miterlimit: 10;
}
.g3_2{
fill: none;
stroke: #FFF;
stroke-width: 1.527;
stroke-miterlimit: 10;
}
.g4_2{
fill: #1A9479;
}
.g5_2{
fill: none;
stroke: #1A9479;
stroke-width: 1.527;
stroke-miterlimit: 10;
}
.g6_2{
fill: #D88787;
}
.g7_2{
fill: #85B6D2;
}
.g8_2{
fill: none;
stroke: #85B6D2;
stroke-width: 1.527;
stroke-miterlimit: 10;
}
.g9_2{
fill: #E19663;
}
.ga_2{
fill: none;
stroke: #E19663;
stroke-width: 1.527;
stroke-miterlimit: 10;
}
.gb_2{
fill: none;
stroke: #D88787;
stroke-width: 1.527;
stroke-miterlimit: 10;
}
]]></style>
</defs>
<path d="M0 1286.2H909.4V0H0V1286.2Z" class="g0_2"/>
<path d="M870.9 1208.3V78c-21.6 0 -39 -17.5 -39 -39H78.3c0 21.5 -17.4 39 -38.9 39V1208.3c21.5 0 38.9 17.4 38.9 38.9H831.9c0 -21.5 17.4 -38.9 39 -38.9Z" class="g1_2"/>
<path d="M870.9 1208.3V78c-21.6 0 -39 -17.5 -39 -39H78.3c0 21.5 -17.4 39 -38.9 39V1208.3c21.5 0 38.9 17.4 38.9 38.9H831.9c0 -21.5 17.4 -38.9 39 -38.9Zm-.4 0V78c-21.6 0 -39 -17.5 -39 -39H78C78 60.5 60.5 78 39 78V1208.3c21.5 0 39 17.4 39 38.9H831.5c0 -21.5 17.4 -38.9 39 -38.9Z" class="g2_2"/>
<path d="M870.5 1208.3V78c-21.6 0 -39 -17.5 -39 -39H78C78 60.5 60.5 78 39 78V1208.3c21.5 0 39 17.4 39 38.9H831.5c0 -21.5 17.4 -38.9 39 -38.9Z" class="g3_2"/>
<path d="M882.1 39c0 6.4 -5.2 11.6 -11.6 11.6c-6.4 0 -11.6 -5.2 -11.6 -11.6c0 -6.4 5.2 -11.6 11.6 -11.6c6.4 0 11.6 5.2 11.6 11.6Z" class="g4_2"/>
<path d="M50.6 39c0 6.4 -5.2 11.6 -11.6 11.6C32.6 50.6 27.4 45.4 27.4 39C27.4 32.6 32.6 27.4 39 27.4c6.4 0 11.6 5.2 11.6 11.6Z" class="g4_2"/>
<path d="M882.1 1247.2c0 6.5 -5.2 11.7 -11.6 11.7c-6.4 0 -11.6 -5.2 -11.6 -11.7c0 -6.4 5.2 -11.6 11.6 -11.6c6.4 0 11.6 5.2 11.6 11.6Z" class="g4_2"/>
<path d="M50.6 1247.2c0 6.5 -5.2 11.7 -11.6 11.7c-6.4 0 -11.6 -5.2 -11.6 -11.7c0 -6.4 5.2 -11.6 11.6 -11.6c6.4 0 11.6 5.2 11.6 11.6Z" class="g4_2"/>
<path d="M622.2 232.2H50.6V186.5H622.2c12.6 0 22.8 10.2 22.8 22.8v.2c0 12.5 -10.2 22.7 -22.8 22.7Z" class="g4_2"/>
<image preserveAspectRatio="none" x="379" y="1172" width="151" height="37" xlink:href="img/1.png"/>
<g clip-path="url(#c0_2)" opacity="0.2">
<path d="M782.2 520.3h-605c-6.7 0 -12.2 -5.4 -12.2 -12.1V345.8c0 -6.7 5.5 -12.1 12.2 -12.1h605c6.7 0 12.2 5.4 12.2 12.1V508.2c0 6.7 -5.5 12.1 -12.2 12.1Z" class="g0_2"/>
</g>
<image preserveAspectRatio="none" x="200" y="450" width="33" height="33" xlink:href="img/2.png"/>
<image preserveAspectRatio="none" x="200" y="399" width="33" height="33" xlink:href="img/3.png"/>
<image preserveAspectRatio="none" x="200" y="348" width="33" height="33" xlink:href="img/4.png"/>

<g clip-path="url(#c0_2)" opacity="0.2">
<path d="M127.5 520.3H141c7.7 0 14 -6.2 14 -14V347.7c0 -7.8 -6.3 -14 -14 -14H127.5c-7.7 0 -14 6.2 -14 14V506.3c0 7.8 6.3 14 14 14Z" class="g0_2"/>
</g>

<g clip-path="url(#c0_2)" opacity="0.2">
<path d="M782.2 729.5h-605c-6.7 0 -12.2 -5.4 -12.2 -12.1V555c0 -6.7 5.5 -12.1 12.2 -12.1h605c6.7 0 12.2 5.4 12.2 12.1V717.4c0 6.7 -5.5 12.1 -12.2 12.1Z" class="g0_2"/>
</g>
<image clip-path="url(#c1_2)" preserveAspectRatio="none" x="200" y="660" width="33" height="33" xlink:href="img/5.png"/>
<image preserveAspectRatio="none" x="200" y="608" width="33" height="33" xlink:href="img/6.png"/>
<image preserveAspectRatio="none" x="200" y="557" width="33" height="33" xlink:href="img/7.png"/>

<g clip-path="url(#c0_2)">
<g opacity="0.2">
<path d="M127.5 729.5H141c7.7 0 14 -6.3 14 -14V556.9c0 -7.8 -6.3 -14 -14 -14H127.5c-7.7 0 -14 6.2 -14 14V715.5c0 7.7 6.3 14 14 14Z" class="g0_2"/>
</g>
<g opacity="0.2">
<path d="M782.2 938.7h-605c-6.7 0 -12.2 -5.4 -12.2 -12.1V764.2c0 -6.7 5.5 -12.2 12.2 -12.2h605c6.7 0 12.2 5.5 12.2 12.2V926.6c0 6.7 -5.5 12.1 -12.2 12.1Z" class="g0_2"/>
</g>
</g>
<image preserveAspectRatio="none" x="200" y="869" width="33" height="33" xlink:href="img/8.png"/>
<image preserveAspectRatio="none" x="200" y="817" width="33" height="33" xlink:href="img/9.png"/>
<image preserveAspectRatio="none" x="200" y="766" width="33" height="33" xlink:href="img/10.png"/>

<g clip-path="url(#c0_2)" opacity="0.2">
<path d="M127.5 938.7H141c7.7 0 14 -6.3 14 -14V766.1C155 758.3 148.7 752 141 752H127.5c-7.7 0 -14 6.3 -14 14.1V924.7c0 7.7 6.3 14 14 14Z" class="g0_2"/>
</g>

<g clip-path="url(#c0_2)" opacity="0.2">
<path d="M782.2 1147.9h-605c-6.7 0 -12.2 -5.4 -12.2 -12.1V973.4c0 -6.7 5.5 -12.2 12.2 -12.2h605c6.7 0 12.2 5.5 12.2 12.2v162.4c0 6.7 -5.5 12.1 -12.2 12.1Z" class="g0_2"/>
</g>
<image preserveAspectRatio="none" x="200" y="1078" width="33" height="33" xlink:href="img/11.png"/>
<image preserveAspectRatio="none" x="200" y="1027" width="33" height="33" xlink:href="img/12.png"/>
<image preserveAspectRatio="none" x="200" y="975" width="33" height="33" xlink:href="img/13.png"/>
<g clip-path="url(#c0_2)" opacity="0.2">
<path d="M127.5 1147.9H141c7.7 0 14 -6.3 14 -14V975.3c0 -7.8 -6.3 -14.1 -14 -14.1H127.5c-7.7 0 -14 6.3 -14 14.1v158.6c0 7.7 6.3 14 14 14Z" class="g0_2"/>
</g>
</svg>