<?xml version="1.0" encoding="UTF-8" standalone="no"?>
<!DOCTYPE svg PUBLIC "-//W3C//DTD SVG 1.1//EN"
"http://www.w3.org/Graphics/SVG/1.1/DTD/svg11.dtd">
<svg viewBox="0 0 909 1286" version="1.1" xmlns="http://www.w3.org/2000/svg" xmlns:xlink="http://www.w3.org/1999/xlink">
<defs>
<clipPath id="c0_7"><path d="M-.2 1286.5V-.2h910V1286.5Z"/></clipPath>
<clipPath id="c1_7"><path d="M116.4 308.1V262.2h65.4v45.9Z"/></clipPath>
<style type="text/css"><![CDATA[
.g0_7{
fill: #F8CCCC;
}
.g1_7{
fill: #FFF;
}
.g2_7{
fill: none;
stroke: #1A9479;
stroke-width: 24.444;
stroke-miterlimit: 10;
}
.g3_7{
fill: none;
stroke: #FFF;
stroke-width: 1.527;
stroke-miterlimit: 10;
}
.g4_7{
fill: #1A9479;
}
.g5_7{
fill: none;
stroke: #000;
stroke-width: 0.458;
}
.g6_7{
fill: #4C3120;
}
.g7_7{
fill: #F9E2BB;
}
.g8_7{
fill: #F0B188;
}
.g9_7{
fill: #5D3E2C;
}
.ga_7{
fill: #211511;
}
.gb_7{
fill: #F5C994;
}
.gc_7{
fill: #CB514F;
}
.gd_7{
fill: #CB504F;
}
.ge_7{
fill: none;
stroke: #CB504F;
stroke-width: 1.222;
stroke-linecap: round;
stroke-linejoin: round;
}
.gf_7{
fill: none;
stroke: #1A9479;
stroke-width: 1.527;
stroke-miterlimit: 10;
}
.gg_7{
fill: none;
stroke: #1A9479;
stroke-width: 1.527;
stroke-linecap: round;
stroke-linejoin: round;
}
]]></style>
</defs>
<path d="M0 1286.2H909.4V0H0V1286.2Z" class="g0_7"/>
<path d="M870.9 1208.3V78c-21.6 0 -39 -17.5 -39 -39H78.3c0 21.5 -17.4 39 -38.9 39V1208.3c21.5 0 38.9 17.4 38.9 38.9H831.9c0 -21.5 17.4 -38.9 39 -38.9Z" class="g1_7"/>
<path d="M870.9 1208.3V78c-21.6 0 -39 -17.5 -39 -39H78.3c0 21.5 -17.4 39 -38.9 39V1208.3c21.5 0 38.9 17.4 38.9 38.9H831.9c0 -21.5 17.4 -38.9 39 -38.9Zm-.4 0V78c-21.6 0 -39 -17.5 -39 -39H78C78 60.5 60.5 78 39 78V1208.3c21.5 0 39 17.4 39 38.9H831.5c0 -21.5 17.4 -38.9 39 -38.9Z" class="g2_7"/>
<path d="M870.5 1208.3V78c-21.6 0 -39 -17.5 -39 -39H78C78 60.5 60.5 78 39 78V1208.3c21.5 0 39 17.4 39 38.9H831.5c0 -21.5 17.4 -38.9 39 -38.9Z" class="g3_7"/>
<path d="M882.1 39c0 6.4 -5.2 11.6 -11.6 11.6c-6.4 0 -11.6 -5.2 -11.6 -11.6c0 -6.4 5.2 -11.6 11.6 -11.6c6.4 0 11.6 5.2 11.6 11.6Z" class="g4_7"/>
<path d="M50.6 39c0 6.4 -5.2 11.6 -11.6 11.6C32.6 50.6 27.4 45.4 27.4 39C27.4 32.6 32.6 27.4 39 27.4c6.4 0 11.6 5.2 11.6 11.6Z" class="g4_7"/>
<path d="M882.1 1247.2c0 6.5 -5.2 11.7 -11.6 11.7c-6.4 0 -11.6 -5.2 -11.6 -11.7c0 -6.4 5.2 -11.6 11.6 -11.6c6.4 0 11.6 5.2 11.6 11.6Z" class="g4_7"/>
<path d="M50.6 1247.2c0 6.5 -5.2 11.7 -11.6 11.7c-6.4 0 -11.6 -5.2 -11.6 -11.7c0 -6.4 5.2 -11.6 11.6 -11.6c6.4 0 11.6 5.2 11.6 11.6Z" class="g4_7"/>
<path clip-path="url(#c0_7)" d="M26 0H-28.9M26 1286.2H-28.9" class="g5_7"/>
<image preserveAspectRatio="none" x="379" y="1172" width="151" height="37" xlink:href="img/1.png"/>
<path d="M569.1 227.8H51.7V182.1H569.1c11.9 0 21.6 9.7 21.6 21.7v2.3c0 12 -9.7 21.7 -21.6 21.7Z" class="g0_7"/>
<path d="M569.1 730.6H51.7V685H569.1c11.9 0 21.6 9.7 21.6 21.6V709c0 11.9 -9.7 21.6 -21.6 21.6Z" class="g0_7"/>
<path d="M392.8 408.9c0 4.8 -3.9 8.8 -8.8 8.8c-4.8 0 -8.8 -4 -8.8 -8.8c0 -4.9 4 -8.8 8.8 -8.8c4.9 0 8.8 3.9 8.8 8.8Z" class="g4_7"/>
<path d="M730.6 484.4c0 5.5 -4.5 10 -10 10c-5.6 0 -10 -4.5 -10 -10c0 -5.6 4.4 -10.1 10 -10.1c5.5 0 10 4.5 10 10.1Z" class="g4_7"/>
<image preserveAspectRatio="none" x="117" y="329" width="64" height="45" xlink:href="img/2.png"/>
<image clip-path="url(#c1_7)" preserveAspectRatio="none" x="117" y="263" width="64" height="45" xlink:href="img/3.png"/>
<path d="M626.3 552.1c0 5.6 -4.5 10.1 -10 10.1c-5.6 0 -10 -4.5 -10 -10.1c0 -5.5 4.4 -10 10 -10c5.5 0 10 4.5 10 10Z" class="g4_7"/>
<g clip-path="url(#c0_7)">
    <g opacity="0.3">
    <path d="M295.6 636.5H131.7c-6.2 0 -11.3 -5.1 -11.3 -11.3V619c0 -6.3 5.1 -11.3 11.3 -11.3H295.6c6.2 0 11.3 5 11.3 11.3v6.2c0 6.2 -5.1 11.3 -11.3 11.3Z" class="g4_7"/>
    </g>
    <g opacity="0.3">
    <path d="M295.6 1142.4H131.7c-6.2 0 -11.3 -5.1 -11.3 -11.3v-6.2c0 -6.3 5.1 -11.3 11.3 -11.3H295.6c6.2 0 11.3 5 11.3 11.3v6.2c0 6.2 -5.1 11.3 -11.3 11.3Z" class="g4_7"/>
    </g>
</g>
<path d="M142.7 544.4c0 7.2 -5.8 13 -13 13c-7.2 0 -13 -5.9 -13 -13c0 -7.2 5.9 -13 13 -13c7.2 0 13 5.9 13 13Z" class="g6_7"/>
<path d="M181.5 544.5c-.1 7.2 -5.9 13 -13.1 13c-7.1 0 -12.9 -5.9 -12.9 -13c0 -7.2 5.8 -13 13 -13c7.2 0 13 5.9 13 13Z" class="g6_7"/>
<path d="M171 560l-43.9 -.1c-3.5 0 -6.4 -2.8 -6.3 -6.3c0 -3.5 2.8 -6.4 6.3 -6.3l44 .1c3.5 0 6.3 2.8 6.3 6.3c0 3.5 -2.9 6.3 -6.4 6.3Z" class="g7_7"/>
<path d="M171.2 557.4l-44.3 -.1c-2.2 0 -4 -1.8 -4 -4c0 -2.2 1.8 -3.9 4 -3.9l44.4 .1c2.1 0 3.9 1.8 3.9 3.9c0 2.2 -1.8 4 -4 4Z" class="g8_7"/>
<path d="M171 554.8c0 3.5 -1.7 6.5 -4 9c-9.8 10.8 -26.2 10.7 -35.9 0c-2.3 -2.6 -3.9 -5.7 -3.9 -9.1c0 -12.6 9.9 -22.3 22 -22.3c12.1 0 21.8 9.8 21.8 22.4Z" class="g7_7"/>
<path d="M143.1 528.2c-1.3 4.7 -.5 8 .1 9.7c3.2 8.3 15.1 13.5 29.5 11.4c0 -1 -.6 -11.9 -10.1 -18.3c-8.9 -5.9 -18.3 -3.2 -19.5 -2.8Z" class="g6_7"/>
<path d="M150.6 527.1c0 0 1.8 19.1 -25.1 22.1c0 0 1.7 -24.1 25.1 -22.1Z" class="g9_7"/>
<path d="M141.2 556v0c-.8 0 -1.4 -.7 -1.4 -1.5c0 -.9 .6 -1.5 1.5 -1.5c.8 0 1.4 .6 1.4 1.5c0 .8 -.6 1.5 -1.5 1.5Z" class="ga_7"/>
<path d="M156.7 556v0c-.8 0 -1.4 -.7 -1.4 -1.5c0 -.8 .6 -1.5 1.5 -1.5c.8 0 1.4 .7 1.4 1.5c0 .8 -.6 1.5 -1.5 1.5Z" class="ga_7"/>
<path d="M149.9 557c0 .5 -.4 .9 -.8 .9c-.5 0 -.9 -.4 -.9 -.9c0 -.5 .4 -.9 .9 -.9c.4 .1 .8 .4 .8 .9Z" class="gb_7"/>
<path d="M140.9 559.6c0 2.1 -1.7 3.8 -3.8 3.8c-2.1 0 -3.8 -1.7 -3.8 -3.9c0 -2.1 1.7 -3.8 3.8 -3.8c2.1 0 3.8 1.7 3.8 3.9Z" class="g8_7"/>
<path d="M164.8 559.6c0 2.1 -1.7 3.8 -3.8 3.8c-2.1 0 -3.8 -1.7 -3.8 -3.8c0 -2.1 1.7 -3.8 3.8 -3.8c2.1 0 3.8 1.7 3.8 3.8Z" class="g8_7"/>
<path d="M138.4 550.3c-.1 0 -.3 -.1 -.4 -.2c-.1 -.3 0 -.6 .2 -.7c.2 0 3.2 -1.6 5 .2c.2 .2 .2 .5 0 .7c-.1 .2 -.4 .2 -.6 0c-1.4 -1.3 -3.9 0 -3.9 0c-.1 0 -.2 0 -.3 0Z" class="g6_7"/>
<path d="M159.4 550.3c.1 0 .3 -.1 .4 -.2c.1 -.3 0 -.6 -.2 -.7c-.2 0 -3.2 -1.6 -5 .2c-.2 .2 -.2 .5 0 .7c.1 .2 .4 .2 .6 0c1.4 -1.3 3.9 0 3.9 0c.1 0 .2 0 .3 0Z" class="g6_7"/>
<path d="M149 567.5v0c-2.2 0 -4 -1.8 -4 -4v-2.2h8.1v2.2c0 2.2 -1.8 4 -4.1 4Z" class="gc_7"/>
<path d="M150.1 562.8H148c-.9 0 -1.5 -.6 -1.5 -1.5h5.1c0 .9 -.7 1.5 -1.5 1.5Z" class="g1_7"/>
<path d="M142.7 478.4c0 7.1 -5.8 12.9 -13 12.9c-7.2 0 -13 -5.8 -13 -13c0 -7.2 5.9 -13 13 -12.9c7.2 0 13 5.8 13 13Z" class="g6_7"/>
<path d="M181.5 478.5c-.1 7.1 -5.9 12.9 -13.1 12.9c-7.1 0 -12.9 -5.8 -12.9 -13c0 -7.2 5.8 -13 13 -13c7.2 .1 13 5.9 13 13.1Z" class="g6_7"/>
<path d="M171 494l-43.9 -.1c-3.5 0 -6.4 -2.9 -6.3 -6.4c0 -3.5 2.8 -6.3 6.3 -6.3l44 .1c3.5 0 6.3 2.8 6.3 6.3c0 3.5 -2.9 6.4 -6.4 6.4Z" class="g7_7"/>
<path d="M171.2 491.3l-44.3 -.1c-2.2 0 -4 -1.8 -4 -3.9c0 -2.2 1.8 -4 4 -4l44.4 .1c2.1 0 3.9 1.8 3.9 4c0 2.2 -1.8 3.9 -4 3.9Z" class="g8_7"/>
<path d="M171 488.8c0 3.4 -1.7 6.4 -4 9c-9.8 10.7 -26.2 10.7 -35.9 -.1c-2.3 -2.6 -3.9 -5.6 -3.9 -9c0 -12.7 9.9 -22.4 22 -22.4c12.1 .1 21.8 9.8 21.8 22.5Z" class="g7_7"/>
<path d="M143.1 462.1c-1.3 4.8 -.5 8 .1 9.7c3.2 8.3 15.1 13.5 29.5 11.5c0 -1.1 -.6 -12 -10.1 -18.4c-8.9 -5.9 -18.3 -3.2 -19.5 -2.8Z" class="g6_7"/>
<path d="M150.6 461.1c0 0 1.8 19.1 -25.1 22.1c0 0 1.7 -24.2 25.1 -22.1Z" class="g9_7"/>
<path d="M141.2 489.9v0c-.8 0 -1.4 -.7 -1.4 -1.5c0 -.8 .6 -1.5 1.5 -1.5c.8 0 1.4 .7 1.4 1.5c0 .8 -.6 1.5 -1.5 1.5Z" class="ga_7"/>
<path d="M156.7 489.9v0c-.8 0 -1.4 -.6 -1.4 -1.5c0 -.8 .6 -1.5 1.5 -1.5c.8 0 1.4 .7 1.4 1.5c0 .9 -.6 1.5 -1.5 1.5Z" class="ga_7"/>
<path d="M149.9 490.9c0 .5 -.4 .9 -.8 .9c-.5 0 -.9 -.4 -.9 -.9c0 -.4 .4 -.8 .9 -.8c.4 0 .8 .4 .8 .8Z" class="gb_7"/>
<path d="M140.9 493.5c0 2.1 -1.7 3.8 -3.8 3.8c-2.1 0 -3.8 -1.7 -3.8 -3.8c0 -2.1 1.7 -3.8 3.8 -3.8c2.1 0 3.8 1.7 3.8 3.8Z" class="g8_7"/>
<path d="M164.8 493.6c0 2.1 -1.7 3.8 -3.8 3.8c-2.1 0 -3.8 -1.7 -3.8 -3.9c0 -2.1 1.7 -3.8 3.8 -3.8c2.1 0 3.8 1.7 3.8 3.9Z" class="g8_7"/>
<path d="M138.4 484.3c-.1 -.1 -.3 -.1 -.4 -.3c-.1 -.2 0 -.5 .2 -.6c.2 -.1 3.2 -1.6 5 .1c.2 .2 .2 .5 0 .7c-.1 .2 -.4 .2 -.6 0c-1.4 -1.3 -3.9 0 -3.9 0c-.1 0 -.2 .1 -.3 .1Z" class="g6_7"/>
<path d="M159.4 484.3c.1 -.1 .3 -.1 .4 -.3c.1 -.2 0 -.5 -.2 -.6c-.2 -.1 -3.2 -1.6 -5 .1c-.2 .2 -.2 .5 0 .7c.1 .2 .4 .2 .6 0c1.4 -1.3 3.9 0 3.9 0c.1 0 .2 .1 .3 .1Z" class="g6_7"/>
<path d="M145.4 497.1h7.4c-.2 .4 -.6 1.5 -1.7 2.2c-.4 .3 -1.3 .9 -2.6 .7c-.9 -.1 -1.5 -.7 -1.8 -1c-.8 -.7 -1.1 -1.5 -1.3 -1.9Z" class="gd_7"/>
<path d="M142.7 412.3c0 7.2 -5.8 13 -13 13c-7.2 -.1 -13 -5.9 -13 -13.1c0 -7.1 5.9 -12.9 13 -12.9c7.2 0 13 5.8 13 13Z" class="g6_7"/>
<path d="M181.5 412.4c-.1 7.2 -5.9 13 -13.1 12.9c-7.1 0 -12.9 -5.8 -12.9 -13c0 -7.1 5.8 -12.9 13 -12.9c7.2 0 13 5.8 13 13Z" class="g6_7"/>
<path d="M171 427.9l-43.9 -.1c-3.5 0 -6.4 -2.9 -6.3 -6.4c0 -3.5 2.8 -6.3 6.3 -6.3l44 .1c3.5 0 6.3 2.9 6.3 6.4c0 3.5 -2.9 6.3 -6.4 6.3Z" class="g7_7"/>
<path d="M171.2 425.3l-44.3 -.1c-2.2 0 -4 -1.8 -4 -4c0 -2.2 1.8 -4 4 -4l44.4 .1c2.1 0 3.9 1.8 3.9 4c0 2.2 -1.8 4 -4 4Z" class="g8_7"/>
<path d="M171 422.7c0 3.4 -1.7 6.4 -4 9c-9.8 10.7 -26.2 10.7 -35.9 -.1c-2.3 -2.6 -3.9 -5.6 -3.9 -9c0 -12.7 9.9 -22.4 22 -22.3c12.1 0 21.8 9.7 21.8 22.4Z" class="g7_7"/>
<path d="M143.1 396.1c-1.3 4.7 -.5 7.9 .1 9.6c3.2 8.4 15.1 13.5 29.5 11.5c0 -1.1 -.6 -12 -10.1 -18.3c-8.9 -5.9 -18.3 -3.2 -19.5 -2.8Z" class="g6_7"/>
<path d="M150.6 395c0 0 1.8 19.1 -25.1 22.1c0 0 1.7 -24.1 25.1 -22.1Z" class="g9_7"/>
<path d="M141.2 423.8v0c-.8 0 -1.4 -.6 -1.4 -1.5c0 -.8 .6 -1.5 1.5 -1.5c.8 0 1.4 .7 1.4 1.5c0 .9 -.6 1.5 -1.5 1.5Z" class="ga_7"/>
<path d="M156.7 423.9v0c-.8 0 -1.4 -.7 -1.4 -1.5c0 -.9 .6 -1.5 1.5 -1.5c.8 0 1.4 .7 1.4 1.5c0 .8 -.6 1.5 -1.5 1.5Z" class="ga_7"/>
<path d="M149.9 424.9c0 .5 -.4 .8 -.8 .8c-.5 0 -.9 -.4 -.9 -.8c0 -.5 .4 -.9 .9 -.9c.4 0 .8 .4 .8 .9Z" class="gb_7"/>
<path d="M140.9 427.4c0 2.1 -1.7 3.9 -3.8 3.9c-2.1 -.1 -3.8 -1.8 -3.8 -3.9c0 -2.1 1.7 -3.8 3.8 -3.8c2.1 0 3.8 1.7 3.8 3.8Z" class="g8_7"/>
<path d="M164.8 427.5c0 2.1 -1.7 3.8 -3.8 3.8c-2.1 0 -3.8 -1.7 -3.8 -3.8c0 -2.1 1.7 -3.9 3.8 -3.8c2.1 0 3.8 1.7 3.8 3.8Z" class="g8_7"/>
<path d="M142.3 416.4c.2 -.1 .4 -.1 .5 0c.2 .1 .3 .4 .1 .7c0 .1 -2 2.8 -4.4 2.2c-.3 -.1 -.4 -.3 -.4 -.6c.1 -.3 .4 -.4 .6 -.3c1.8 .4 3.4 -1.9 3.5 -1.9c0 -.1 .1 -.1 .1 -.1Z" class="g6_7"/>
<path d="M154.5 416.4c-.2 0 -.3 0 -.5 .1c-.2 .2 -.2 .5 0 .7c.1 .1 2.3 2.6 4.7 1.6c.2 -.1 .4 -.3 .3 -.6c-.1 -.2 -.4 -.3 -.7 -.2c-1.7 .7 -3.6 -1.4 -3.6 -1.4q-.1 -.1 -.2 -.2Z" class="g6_7"/>
<path d="M147.8 433.1c1.4 -.1 2.8 -.3 4.2 -.4" class="ge_7"/>
<image preserveAspectRatio="none" x="117" y="834" width="64" height="46" xlink:href="img/4.png"/>
<image preserveAspectRatio="none" x="117" y="768" width="64" height="46" xlink:href="img/5.png"/>
<path d="M142.7 1050.3c0 7.2 -5.8 13 -13 13c-7.2 -.1 -13 -5.9 -13 -13c0 -7.2 5.9 -13 13 -13c7.2 0 13 5.8 13 13Z" class="g6_7"/>
<path d="M181.5 1050.4c-.1 7.2 -5.9 13 -13.1 13c-7.1 -.1 -12.9 -5.9 -12.9 -13.1c0 -7.1 5.8 -12.9 13 -12.9c7.2 0 13 5.8 13 13Z" class="g6_7"/>
<path d="M171 1065.9l-43.9 -.1c-3.5 0 -6.4 -2.8 -6.3 -6.3c0 -3.5 2.8 -6.4 6.3 -6.4l44 .1c3.5 0 6.3 2.9 6.3 6.4c0 3.5 -2.9 6.3 -6.4 6.3Z" class="g7_7"/>
<path d="M171.2 1063.3l-44.3 -.1c-2.2 0 -4 -1.8 -4 -4c0 -2.2 1.8 -4 4 -4l44.4 .1c2.1 .1 3.9 1.8 3.9 4c0 2.2 -1.8 4 -4 4Z" class="g8_7"/>
<path d="M171 1060.7c0 3.4 -1.7 6.4 -4 9c-9.8 10.7 -26.2 10.7 -35.9 -.1c-2.3 -2.6 -3.9 -5.6 -3.9 -9c0 -12.7 9.9 -22.4 22 -22.3c12.1 0 21.8 9.7 21.8 22.4Z" class="g7_7"/>
<path d="M143.1 1034.1c-1.3 4.7 -.5 7.9 .1 9.7c3.2 8.3 15.1 13.5 29.5 11.4c0 -1.1 -.6 -12 -10.1 -18.3c-8.9 -5.9 -18.3 -3.2 -19.5 -2.8Z" class="g6_7"/>
<path d="M150.6 1033c0 0 1.8 19.1 -25.1 22.1c0 0 1.7 -24.1 25.1 -22.1Z" class="g9_7"/>
<path d="M141.2 1061.8v0c-.8 0 -1.4 -.6 -1.4 -1.5c0 -.8 .6 -1.5 1.5 -1.5c.8 0 1.4 .7 1.4 1.5c0 .9 -.6 1.5 -1.5 1.5Z" class="ga_7"/>
<path d="M156.7 1061.9v0c-.8 0 -1.4 -.7 -1.4 -1.5c0 -.8 .6 -1.5 1.5 -1.5c.8 0 1.4 .7 1.4 1.5c0 .8 -.6 1.5 -1.5 1.5Z" class="ga_7"/>
<path d="M149.9 1062.9c0 .5 -.4 .8 -.8 .8c-.5 0 -.9 -.3 -.9 -.8c0 -.5 .4 -.9 .9 -.9c.4 0 .8 .4 .8 .9Z" class="gb_7"/>
<path d="M140.9 1065.4c0 2.2 -1.7 3.9 -3.8 3.9c-2.1 0 -3.8 -1.8 -3.8 -3.9c0 -2.1 1.7 -3.8 3.8 -3.8c2.1 0 3.8 1.7 3.8 3.8Z" class="g8_7"/>
<path d="M164.8 1065.5c0 2.1 -1.7 3.8 -3.8 3.8c-2.1 0 -3.8 -1.7 -3.8 -3.8c0 -2.1 1.7 -3.8 3.8 -3.8c2.1 0 3.8 1.7 3.8 3.8Z" class="g8_7"/>
<path d="M138.4 1056.2c-.1 0 -.3 -.1 -.4 -.3c-.1 -.2 0 -.5 .2 -.6c.2 -.1 3.2 -1.6 5 .2c.2 .2 .2 .5 0 .6c-.1 .2 -.4 .2 -.6 .1c-1.4 -1.3 -3.9 -.1 -3.9 0c-.1 0 -.2 0 -.3 0Z" class="g6_7"/>
<path d="M159.4 1056.2c.1 0 .3 -.1 .4 -.3c.1 -.2 0 -.5 -.2 -.6c-.2 -.1 -3.2 -1.6 -5 .2c-.2 .2 -.2 .5 0 .6c.1 .2 .4 .2 .6 .1c1.4 -1.3 3.9 -.1 3.9 0c.1 0 .2 0 .3 0Z" class="g6_7"/>
<path d="M149 1073.4v0c-2.2 0 -4 -1.8 -4 -4.1v-2.1h8.1v2.1c0 2.3 -1.8 4.1 -4.1 4.1Z" class="gc_7"/>
<path d="M150.1 1068.7H148c-.9 0 -1.5 -.7 -1.5 -1.5h5.1c0 .8 -.7 1.5 -1.5 1.5Z" class="g1_7"/>
<path d="M142.7 984.2c0 7.2 -5.8 13 -13 13c-7.2 0 -13 -5.8 -13 -13c0 -7.2 5.9 -13 13 -13c7.2 .1 13 5.9 13 13Z" class="g6_7"/>
<path d="M181.5 984.3c-.1 7.2 -5.9 13 -13.1 13c-7.1 0 -12.9 -5.9 -12.9 -13c0 -7.2 5.8 -13 13 -13c7.2 0 13 5.9 13 13Z" class="g6_7"/>
<path d="M171 999.8l-43.9 -.1c-3.5 0 -6.4 -2.8 -6.3 -6.3c0 -3.5 2.8 -6.3 6.3 -6.3l44 .1c3.5 0 6.3 2.8 6.3 6.3c0 3.5 -2.9 6.4 -6.4 6.3Z" class="g7_7"/>
<path d="M171.2 997.2l-44.3 -.1c-2.2 0 -4 -1.8 -4 -4c0 -2.2 1.8 -3.9 4 -3.9l44.4 .1c2.1 0 3.9 1.8 3.9 4c0 2.1 -1.8 3.9 -4 3.9Z" class="g8_7"/>
<path d="M171 994.6c0 3.5 -1.7 6.5 -4 9.1c-9.8 10.7 -26.2 10.6 -35.9 -.1c-2.3 -2.6 -3.9 -5.6 -3.9 -9.1c0 -12.6 9.9 -22.3 22 -22.3c12.1 0 21.8 9.8 21.8 22.4Z" class="g7_7"/>
<path d="M143.1 968c-1.3 4.7 -.5 8 .1 9.7c3.2 8.3 15.1 13.5 29.5 11.5c0 -1.1 -.6 -12 -10.1 -18.4c-8.9 -5.9 -18.3 -3.2 -19.5 -2.8Z" class="g6_7"/>
<path d="M150.6 966.9c0 0 1.8 19.1 -25.1 22.1c0 0 1.7 -24.1 25.1 -22.1Z" class="g9_7"/>
<path d="M141.2 995.8v0c-.8 0 -1.4 -.7 -1.4 -1.5c0 -.9 .6 -1.5 1.5 -1.5c.8 0 1.4 .7 1.4 1.5c0 .8 -.6 1.5 -1.5 1.5Z" class="ga_7"/>
<path d="M156.7 995.8v0c-.8 0 -1.4 -.7 -1.4 -1.5c0 -.8 .6 -1.5 1.5 -1.5c.8 0 1.4 .7 1.4 1.5c0 .8 -.6 1.5 -1.5 1.5Z" class="ga_7"/>
<path d="M149.9 996.8c0 .5 -.4 .9 -.8 .9c-.5 0 -.9 -.4 -.9 -.9c0 -.5 .4 -.8 .9 -.8c.4 0 .8 .3 .8 .8Z" class="gb_7"/>
<path d="M140.9 999.4c0 2.1 -1.7 3.8 -3.8 3.8c-2.1 0 -3.8 -1.7 -3.8 -3.8c0 -2.2 1.7 -3.9 3.8 -3.9c2.1 0 3.8 1.8 3.8 3.9Z" class="g8_7"/>
<path d="M164.8 999.4c0 2.1 -1.7 3.9 -3.8 3.9c-2.1 -.1 -3.8 -1.8 -3.8 -3.9c0 -2.1 1.7 -3.8 3.8 -3.8c2.1 0 3.8 1.7 3.8 3.8Z" class="g8_7"/>
<path d="M138.4 990.1c-.1 0 -.3 -.1 -.4 -.2c-.1 -.3 0 -.5 .2 -.7c.2 0 3.2 -1.5 5 .2c.2 .2 .2 .5 0 .7c-.1 .2 -.4 .2 -.6 0c-1.4 -1.3 -3.9 0 -3.9 0c-.1 0 -.2 0 -.3 0Z" class="g6_7"/>
<path d="M159.4 990.1c.1 0 .3 -.1 .4 -.2c.1 -.3 0 -.5 -.2 -.7c-.2 0 -3.2 -1.5 -5 .2c-.2 .2 -.2 .5 0 .7c.1 .2 .4 .2 .6 0c1.4 -1.3 3.9 0 3.9 0c.1 0 .2 0 .3 0Z" class="g6_7"/>
<path d="M145.4 1003h7.4c-.2 .4 -.6 1.4 -1.7 2.2c-.4 .3 -1.3 .9 -2.6 .7c-.9 -.1 -1.5 -.7 -1.8 -1.1c-.8 -.6 -1.1 -1.4 -1.3 -1.8Z" class="gd_7"/>
<path d="M142.7 918.2c0 7.2 -5.8 13 -13 12.9c-7.2 0 -13 -5.8 -13 -13c0 -7.1 5.9 -12.9 13 -12.9c7.2 0 13 5.8 13 13Z" class="g6_7"/>
<path d="M181.5 918.3c-.1 7.1 -5.9 12.9 -13.1 12.9c-7.1 0 -12.9 -5.8 -12.9 -13c0 -7.2 5.8 -13 13 -12.9c7.2 0 13 5.8 13 13Z" class="g6_7"/>
<path d="M171 933.8l-43.9 -.1c-3.5 0 -6.4 -2.9 -6.3 -6.4c0 -3.5 2.8 -6.3 6.3 -6.3l44 .1c3.5 0 6.3 2.9 6.3 6.4c0 3.5 -2.9 6.3 -6.4 6.3Z" class="g7_7"/>
<path d="M171.2 931.1L126.9 931c-2.2 0 -4 -1.7 -4 -3.9c0 -2.2 1.8 -4 4 -4l44.4 .1c2.1 0 3.9 1.8 3.9 4c0 2.2 -1.8 3.9 -4 3.9Z" class="g8_7"/>
<path d="M171 928.6c0 3.4 -1.7 6.4 -4 9c-9.8 10.7 -26.2 10.7 -35.9 -.1c-2.3 -2.6 -3.9 -5.6 -3.9 -9c0 -12.7 9.9 -22.4 22 -22.4c12.1 .1 21.8 9.8 21.8 22.5Z" class="g7_7"/>
<path d="M143.1 901.9c-1.3 4.8 -.5 8 .1 9.7c3.2 8.3 15.1 13.5 29.5 11.5c0 -1.1 -.6 -12 -10.1 -18.4c-8.9 -5.9 -18.3 -3.1 -19.5 -2.8Z" class="g6_7"/>
<path d="M150.6 900.9c0 0 1.8 19.1 -25.1 22.1c0 0 1.7 -24.2 25.1 -22.1Z" class="g9_7"/>
<path d="M141.2 929.7v0c-.8 0 -1.4 -.7 -1.4 -1.5c0 -.8 .6 -1.5 1.5 -1.5c.8 0 1.4 .7 1.4 1.5c0 .8 -.6 1.5 -1.5 1.5Z" class="ga_7"/>
<path d="M156.7 929.7v0c-.8 0 -1.4 -.6 -1.4 -1.4c0 -.9 .6 -1.5 1.5 -1.5c.8 0 1.4 .6 1.4 1.5c0 .8 -.6 1.5 -1.5 1.4Z" class="ga_7"/>
<path d="M149.9 930.8c0 .4 -.4 .8 -.8 .8c-.5 0 -.9 -.4 -.9 -.8c0 -.5 .4 -.9 .9 -.9c.4 0 .8 .4 .8 .9Z" class="gb_7"/>
<path d="M140.9 933.3c0 2.1 -1.7 3.8 -3.8 3.8c-2.1 0 -3.8 -1.7 -3.8 -3.8c0 -2.1 1.7 -3.8 3.8 -3.8c2.1 0 3.8 1.7 3.8 3.8Z" class="g8_7"/>
<path d="M164.8 933.4c0 2.1 -1.7 3.8 -3.8 3.8c-2.1 0 -3.8 -1.7 -3.8 -3.8c0 -2.2 1.7 -3.9 3.8 -3.9c2.1 0 3.8 1.8 3.8 3.9Z" class="g8_7"/>
<path d="M142.3 922.2c.2 0 .4 0 .5 .1c.2 .1 .3 .4 .1 .6c0 .2 -2 2.9 -4.4 2.3c-.3 -.1 -.4 -.4 -.4 -.6c.1 -.3 .4 -.4 .6 -.4c1.8 .5 3.4 -1.8 3.5 -1.8c0 -.1 .1 -.1 .1 -.2Z" class="g6_7"/>
<path d="M154.5 922.3c-.2 0 -.3 0 -.5 .1c-.2 .2 -.2 .5 0 .7c.1 .1 2.3 2.6 4.7 1.6c.2 -.1 .4 -.4 .3 -.6c-.1 -.2 -.4 -.4 -.7 -.3c-1.7 .7 -3.6 -1.3 -3.6 -1.4c-.1 0 -.1 -.1 -.2 -.1Z" class="g6_7"/>
<path d="M147.8 939c1.4 -.1 2.8 -.3 4.2 -.4" class="ge_7"/>
<path d="M507.8 285.2c0 4.8 -4 8.8 -8.8 8.8c-4.9 0 -8.8 -4 -8.8 -8.8c0 -4.9 3.9 -8.8 8.8 -8.8c4.8 0 8.8 3.9 8.8 8.8Z" class="g4_7"/>
<path d="M384 408.9L499 285.2L616.3 552.1L720.6 484.4" class="gf_7"/>
<path d="M378.6 857.6c0 4.9 -4 8.8 -8.8 8.8c-4.9 0 -8.8 -3.9 -8.8 -8.8c0 -4.9 3.9 -8.8 8.8 -8.8c4.8 0 8.8 3.9 8.8 8.8Z" class="g4_7"/>
<path d="M472.7 1056.9c0 4.9 -3.9 8.8 -8.8 8.8c-4.9 0 -8.8 -3.9 -8.8 -8.8c0 -4.8 3.9 -8.8 8.8 -8.8c4.9 0 8.8 4 8.8 8.8Z" class="g4_7"/>
<path d="M565.3 1056.9c0 4.9 -3.9 8.8 -8.8 8.8c-4.8 0 -8.8 -3.9 -8.8 -8.8c0 -4.8 4 -8.8 8.8 -8.8c4.9 0 8.8 4 8.8 8.8Z" class="g4_7"/>
<path d="M672.1 857.6c0 4.9 -3.9 8.8 -8.8 8.8c-4.9 0 -8.8 -3.9 -8.8 -8.8c0 -4.9 3.9 -8.8 8.8 -8.8c4.9 0 8.8 3.9 8.8 8.8Z" class="g4_7"/>
<path d="M757.5 918.6c0 4.9 -4 8.8 -8.8 8.8c-4.9 0 -8.8 -3.9 -8.8 -8.8c0 -4.9 3.9 -8.8 8.8 -8.8c4.8 0 8.8 3.9 8.8 8.8Z" class="g4_7"/>
<path d="M369.8 857.6l94.1 199.3h92.6L663.3 857.6l85.4 61" class="gg_7"/>
</svg>