<?xml version="1.0" encoding="UTF-8" standalone="no"?>
<!DOCTYPE svg PUBLIC "-//W3C//DTD SVG 1.1//EN"
"http://www.w3.org/Graphics/SVG/1.1/DTD/svg11.dtd">
<svg viewBox="0 0 909 1286" version="1.1" xmlns="http://www.w3.org/2000/svg" xmlns:xlink="http://www.w3.org/1999/xlink">
<defs>
<clipPath id="c0_5"><path d="M-.2 1286.5V-.2h910V1286.5Z"/></clipPath>
<clipPath id="c1_5"><path d="M246.3 880.2V295.9h418V880.2Z"/></clipPath>
<style type="text/css"><![CDATA[
.g0_5{
fill: none;
stroke: #000;
stroke-width: 0.458;
}
.g1_5{
fill: #F8CCCC;
}
.g2_5{
fill: #FFF;
}
.g3_5{
fill: none;
stroke: #1A9479;
stroke-width: 24.444;
stroke-miterlimit: 10;
}
.g4_5{
fill: none;
stroke: #FFF;
stroke-width: 1.527;
stroke-miterlimit: 10;
}
.g5_5{
fill: #1A9479;
}
]]></style>
</defs>
<path clip-path="url(#c0_5)" d="M883.5 0h55m-55 1286.2h55" class="g0_5"/>
<path d="M0 1286.2H909.4V0H0V1286.2Z" class="g1_5"/>
<path d="M870.9 1208.3V78c-21.6 0 -39 -17.5 -39 -39H78.3c0 21.5 -17.4 39 -38.9 39V1208.3c21.5 0 38.9 17.4 38.9 38.9H831.9c0 -21.5 17.4 -38.9 39 -38.9Z" class="g2_5"/>
<path d="M870.9 1208.3V78c-21.6 0 -39 -17.5 -39 -39H78.3c0 21.5 -17.4 39 -38.9 39V1208.3c21.5 0 38.9 17.4 38.9 38.9H831.9c0 -21.5 17.4 -38.9 39 -38.9Zm-.4 0V78c-21.6 0 -39 -17.5 -39 -39H78C78 60.5 60.5 78 39 78V1208.3c21.5 0 39 17.4 39 38.9H831.5c0 -21.5 17.4 -38.9 39 -38.9Z" class="g3_5"/>
<path d="M870.5 1208.3V78c-21.6 0 -39 -17.5 -39 -39H78C78 60.5 60.5 78 39 78V1208.3c21.5 0 39 17.4 39 38.9H831.5c0 -21.5 17.4 -38.9 39 -38.9Z" class="g4_5"/>
<path d="M882.1 39c0 6.4 -5.2 11.6 -11.6 11.6c-6.4 0 -11.6 -5.2 -11.6 -11.6c0 -6.4 5.2 -11.6 11.6 -11.6c6.4 0 11.6 5.2 11.6 11.6Z" class="g5_5"/>
<path d="M50.6 39c0 6.4 -5.2 11.6 -11.6 11.6C32.6 50.6 27.4 45.4 27.4 39C27.4 32.6 32.6 27.4 39 27.4c6.4 0 11.6 5.2 11.6 11.6Z" class="g5_5"/>
<path d="M882.1 1247.2c0 6.5 -5.2 11.7 -11.6 11.7c-6.4 0 -11.6 -5.2 -11.6 -11.7c0 -6.4 5.2 -11.6 11.6 -11.6c6.4 0 11.6 5.2 11.6 11.6Z" class="g5_5"/>
<path d="M50.6 1247.2c0 6.5 -5.2 11.7 -11.6 11.7c-6.4 0 -11.6 -5.2 -11.6 -11.7c0 -6.4 5.2 -11.6 11.6 -11.6c6.4 0 11.6 5.2 11.6 11.6Z" class="g5_5"/>
<image preserveAspectRatio="none" x="379" y="1172" width="151" height="37" xlink:href="img/1.png"/>
<path d="M452.4 163.4H51.7V117.8H452.4c10.6 0 19.1 8.5 19.1 19.1v7.4c0 10.6 -8.5 19.1 -19.1 19.1Z" class="g1_5"/>
<!--image clip-path="url(#c1_5)" preserveAspectRatio="none" x="247" y="296" width="417" height="584" xlink:href="img/2.png"/-->
<path d="M166.6 216.7c0 5.4 -4.5 9.8 -9.9 9.8c-5.5 0 -9.9 -4.4 -9.9 -9.8c0 -5.5 4.4 -9.9 9.9 -9.9c5.4 0 9.9 4.4 9.9 9.9Z" class="g1_5"/>
<!--image preserveAspectRatio="none" x="614" y="947" width="97" height="97" xlink:href="img/3.png"/>
<image preserveAspectRatio="none" x="201" y="947" width="97" height="97" xlink:href="img/4.png"/>
<image preserveAspectRatio="none" x="338" y="946" width="98" height="99" xlink:href="img/5.png"/>
<image preserveAspectRatio="none" x="476" y="947" width="97" height="97" xlink:href="img/6.png"/-->
</svg>